<?xml version="1.0" encoding="utf-8"?>
<!-- Generator: Adobe Illustrator 27.5.0, SVG Export Plug-In . SVG Version: 6.00 Build 0)  -->
<svg version="1.1" xmlns="http://www.w3.org/2000/svg" xmlns:xlink="http://www.w3.org/1999/xlink" x="0px" y="0px"
	 viewBox="0 0 3710 3710" style="enable-background:new 0 0 3710 3710;" xml:space="preserve">
<g id="Background">
	<g>
		<g>
			<rect style="fill:#FFFFFF;" width="3710" height="3710"/>
		</g>
	</g>
</g>
<g id="Illustration">
	<g>
		<linearGradient id="SVGID_1_" gradientUnits="userSpaceOnUse" x1="3456.5471" y1="3267.2173" x2="1407.1082" y2="1473.9596">
			<stop  offset="0" style="stop-color:#DAE3FE"/>
			<stop  offset="1" style="stop-color:#E9EFFD"/>
		</linearGradient>
		<path style="fill:url(#SVGID_1_);" d="M3108.249,2335.898c-264.87,623.662-970.422,973.042-1582.279,878.799
			c-99.561-15.336-372.512-61.017-614.172-276.528c-465.211-414.874-564.7-1236.378-189.428-1815.312
			c273.132-421.362,762.749-660.218,1227.981-648.27c100.211,2.573,484.262,18.434,821.775,296.741
			c49.574,40.878,158.915,138.015,257.457,292.116C3260.979,1425.302,3280.868,1929.45,3108.249,2335.898z"/>
		<g>
			
				<linearGradient id="SVGID_00000170257490242980034280000015452189781777138587_" gradientUnits="userSpaceOnUse" x1="710.6176" y1="1774.9083" x2="1220.7448" y2="1882.9354">
				<stop  offset="0" style="stop-color:#4F52FF"/>
				<stop  offset="1" style="stop-color:#4042E2"/>
			</linearGradient>
			<path style="fill:url(#SVGID_00000170257490242980034280000015452189781777138587_);" d="M661.379,1359.582l185.862,203.443
				c-116.303,87.728-189.253,259.871,5.427,464.582l-261.728,126.859C407.502,1833.242,433.437,1579.414,661.379,1359.582z"/>
			<path style="fill:#7D97F4;" d="M551.909,2080.667l180.319,2.902l32.382-177.593c99.04,203.418,333.087,288.427,600.898,201.656
				l135.234,251.388C1114.224,2535.227,722.969,2444.804,551.909,2080.667z"/>
			
				<linearGradient id="SVGID_00000042008956315606252060000005307826806909812639_" gradientUnits="userSpaceOnUse" x1="2535.0554" y1="1020.1954" x2="2499.2117" y2="1656.4244">
				<stop  offset="0" style="stop-color:#4F52FF"/>
				<stop  offset="1" style="stop-color:#4042E2"/>
			</linearGradient>
			<path style="fill:url(#SVGID_00000042008956315606252060000005307826806909812639_);" d="M2064.135,1811.927
				c146.167-288.923,531.956-395.495,809.388-237.281l281.202-93.078c-328.439-438.135-925.239-355.01-1295.988,82.82
				L2064.135,1811.927z"/>
			<path style="fill:#91B3FA;" d="M2712.844,2117.763l119.311,278.711c435.336-181.328,567.074-795.333,174.02-1065.846
				l2.864,180.585l-184.98,38.49C3096.492,1678.937,2975.09,2045.203,2712.844,2117.763z"/>
			<path style="fill:#7D97F4;" d="M1935.761,2196.616c412.435,296.623,773.324,335.295,1061.079,99.595l-202.527-71.968
				l56.374-180.385c-252.541,175.268-487.239,118.239-712.536-61.222L1935.761,2196.616z"/>
			<path style="fill:#7D97F4;" d="M661.379,1359.582l0,195.393l185.862,8.05c120.521-78.177,295.034-71.867,514.72-1.572
				l127.658-283.027C1155.803,1135.471,882.125,1169.601,661.379,1359.582z"/>
			
				<linearGradient id="SVGID_00000158002639486911054550000009325467218881111743_" gradientUnits="userSpaceOnUse" x1="1517.7701" y1="1278.1588" x2="2423.9946" y2="2868.5515">
				<stop  offset="0" style="stop-color:#4F52FF"/>
				<stop  offset="1" style="stop-color:#4042E2"/>
			</linearGradient>
			<path style="fill:url(#SVGID_00000158002639486911054550000009325467218881111743_);" d="M1361.962,1561.453l-104.408-217.489
				l232.066-65.537c150.752,78.626,272.163,174.926,369.116,285.962c106.725,235.047,253.204,435.652,436.387,521.266
				l-240.415,2.534l37.016,209.714c-94.196-56.41-185.101-119.726-265.079-188.756l-180.532-320.982
				C1583.161,1692.561,1495.343,1614.714,1361.962,1561.453z"/>
			<path style="fill:#91B3FA;" d="M1858.736,1564.388c-70.62,75.508-116.846,186.825-183.208,265.929
				c-105.841,126.163-237.833,289.161-476.011,310.365l194.449,100.612l-115.759,189.815
				c388.435-77.196,660.211-330.572,785.928-619.183v-277.764L1858.736,1564.388z"/>
		</g>
		<g>
			<path style="fill:#7D97F4;" d="M1924.683,756.457l945.436-4.135c9.042-0.081,16.401,7.254,16.349,16.296l-2.017,330.93
				c-0.052,9.102-7.572,16.376-16.67,16.105c-83.367-2.485-937.843-13.452-954.182-12.769
				c-16.146,0.676-7.374-260.663-4.964-330.792C1908.932,763.422,1916.008,756.535,1924.683,756.457z"/>
			<path style="fill:#FFFFFF;" d="M2868.274,1102.854l-0.111-0.003c-53.28-1.589-563.885-7.962-809.269-11.025
				c-71.749-0.895-122.681-1.53-136.26-1.721l-1.266-0.018l-0.222-1.248c-5.799-32.716-5.7-142.092,0.288-316.307
				c0.063-1.817,1.541-3.254,3.364-3.269l945.442-4.131c0.932,0,1.793,0.356,2.434,1.003c0.648,0.647,0.992,1.482,0.986,2.41
				l-2.018,330.933C2871.631,1101.339,2870.12,1102.854,2868.274,1102.854z M1923.953,1087.057
				c15.274,0.209,65.313,0.835,134.98,1.703c245.392,3.063,756.016,9.436,809.322,11.025l0.09,0.006
				c0.093-0.003,0.232-0.153,0.233-0.332l2.018-330.933l-0.348-1.862l0.007,1.533l-945.435,4.131
				c-0.173,0.003-0.314,0.135-0.32,0.311C1918.593,944.474,1918.407,1053.072,1923.953,1087.057z"/>
			
				<linearGradient id="SVGID_00000128456372109527307260000012804166158355791261_" gradientUnits="userSpaceOnUse" x1="1965.1348" y1="841.9199" x2="2340.6223" y2="841.9199">
				<stop  offset="0" style="stop-color:#DAE3FE"/>
				<stop  offset="1" style="stop-color:#E9EFFD"/>
			</linearGradient>
			<path style="opacity:0.7;fill:url(#SVGID_00000128456372109527307260000012804166158355791261_);" d="M1965.135,841.92
				L1965.135,841.92c0,8.949,2.986,16.204,6.669,16.204h362.15c3.683,0,6.669-7.255,6.669-16.204l0,0
				c0-8.949-2.986-16.204-6.669-16.204h-362.15C1968.121,825.716,1965.135,832.971,1965.135,841.92z"/>
			
				<linearGradient id="SVGID_00000132793417192791919330000014219006002837961613_" gradientUnits="userSpaceOnUse" x1="1965.1348" y1="897.1589" x2="2340.6223" y2="897.1589">
				<stop  offset="0" style="stop-color:#DAE3FE"/>
				<stop  offset="1" style="stop-color:#E9EFFD"/>
			</linearGradient>
			<path style="opacity:0.7;fill:url(#SVGID_00000132793417192791919330000014219006002837961613_);" d="M1965.135,897.159
				L1965.135,897.159c0,8.949,2.986,16.204,6.669,16.204h362.15c3.683,0,6.669-7.255,6.669-16.204l0,0
				c0-8.949-2.986-16.204-6.669-16.204h-362.15C1968.121,880.955,1965.135,888.21,1965.135,897.159z"/>
			
				<linearGradient id="SVGID_00000008129865097328745300000017752519073160235174_" gradientUnits="userSpaceOnUse" x1="1965.1348" y1="952.3981" x2="2340.6223" y2="952.3981">
				<stop  offset="0" style="stop-color:#DAE3FE"/>
				<stop  offset="1" style="stop-color:#E9EFFD"/>
			</linearGradient>
			<path style="opacity:0.7;fill:url(#SVGID_00000008129865097328745300000017752519073160235174_);" d="M1965.135,952.398
				L1965.135,952.398c0,8.949,2.986,16.204,6.669,16.204h362.15c3.683,0,6.669-7.255,6.669-16.204l0,0
				c0-8.949-2.986-16.204-6.669-16.204h-362.15C1968.121,936.194,1965.135,943.449,1965.135,952.398z"/>
			
				<linearGradient id="SVGID_00000080179664845700275020000002694701001743750575_" gradientUnits="userSpaceOnUse" x1="1965.1348" y1="1007.637" x2="2340.6223" y2="1007.637">
				<stop  offset="0" style="stop-color:#DAE3FE"/>
				<stop  offset="1" style="stop-color:#E9EFFD"/>
			</linearGradient>
			<path style="opacity:0.7;fill:url(#SVGID_00000080179664845700275020000002694701001743750575_);" d="M1965.135,1007.637
				L1965.135,1007.637c0,8.949,2.986,16.204,6.669,16.204h362.15c3.683,0,6.669-7.255,6.669-16.204l0,0
				c0-8.949-2.986-16.204-6.669-16.204h-362.15C1968.121,991.433,1965.135,998.688,1965.135,1007.637z"/>
			<g>
				<circle style="fill:#FFFFFF;" cx="2432.376" cy="853.336" r="62.996"/>
				<circle style="fill:#FFFFFF;" cx="2588.941" cy="853.336" r="62.996"/>
				<circle style="fill:#FFFFFF;" cx="2745.505" cy="855.398" r="62.996"/>
				<g>
					<path style="fill:#7D97F4;" d="M2469.808,840.022c1.95,4.742,3.032,9.931,3.032,15.376c0,22.348-18.117,40.464-40.464,40.464
						c-22.348,0-40.465-18.116-40.465-40.464c0-22.348,18.116-40.464,40.465-40.464c0.684,0,1.365,0.018,2.041,0.051v-10.257
						c-0.677-0.027-1.357-0.044-2.041-0.044c-28.009,0-50.714,22.706-50.714,50.714c0,28.009,22.705,50.714,50.714,50.714
						c28.009,0,50.714-22.706,50.714-50.714c0-6.897-1.379-13.47-3.873-19.464L2469.808,840.022z"/>
					<path style="fill:#7D97F4;" d="M2609.814,889.633c-6.243,3.94-13.633,6.229-21.56,6.229c-22.348,0-40.465-18.116-40.465-40.464
						c0-22.348,18.116-40.464,40.465-40.464c0.685,0,1.365,0.018,2.041,0.051v-10.257c-0.677-0.027-1.357-0.044-2.041-0.044
						c-28.009,0-50.715,22.706-50.715,50.714c0,28.009,22.706,50.714,50.715,50.714c9.775,0,18.902-2.768,26.646-7.56
						L2609.814,889.633z"/>
					<path style="fill:#7D97F4;" d="M2779.272,878.148c-7.282,10.691-19.552,17.714-33.464,17.714
						c-22.348,0-40.464-18.116-40.464-40.464c0-22.348,18.116-40.464,40.464-40.464c0.685,0,1.365,0.018,2.041,0.051v-10.257
						c-0.677-0.027-1.357-0.044-2.041-0.044c-28.009,0-50.714,22.706-50.714,50.714c0,28.009,22.706,50.714,50.714,50.714
						c17.327,0,32.622-8.691,41.77-21.951L2779.272,878.148z"/>
				</g>
				<g style="opacity:0.64;">
					
						<linearGradient id="SVGID_00000074420862999510190450000007604566304492348288_" gradientUnits="userSpaceOnUse" x1="2369.3799" y1="954.6843" x2="2495.373" y2="954.6843">
						<stop  offset="0" style="stop-color:#DAE3FE"/>
						<stop  offset="1" style="stop-color:#E9EFFD"/>
					</linearGradient>
					<path style="fill:url(#SVGID_00000074420862999510190450000007604566304492348288_);" d="M2483.705,943.017h-102.658
						c-6.444,0-11.667,5.224-11.667,11.667s5.224,11.667,11.667,11.667h102.658c6.444,0,11.668-5.223,11.668-11.667
						S2490.149,943.017,2483.705,943.017z"/>
					
						<linearGradient id="SVGID_00000160178622772371028980000013288755345818323120_" gradientUnits="userSpaceOnUse" x1="2525.9446" y1="954.6843" x2="2651.937" y2="954.6843">
						<stop  offset="0" style="stop-color:#DAE3FE"/>
						<stop  offset="1" style="stop-color:#E9EFFD"/>
					</linearGradient>
					<path style="fill:url(#SVGID_00000160178622772371028980000013288755345818323120_);" d="M2640.27,943.017h-102.658
						c-6.443,0-11.667,5.224-11.667,11.667s5.224,11.667,11.667,11.667h102.658c6.444,0,11.667-5.223,11.667-11.667
						S2646.714,943.017,2640.27,943.017z"/>
					
						<linearGradient id="SVGID_00000163071368482702476290000003289784265362483879_" gradientUnits="userSpaceOnUse" x1="2682.5088" y1="954.6843" x2="2808.5015" y2="954.6843">
						<stop  offset="0" style="stop-color:#DAE3FE"/>
						<stop  offset="1" style="stop-color:#E9EFFD"/>
					</linearGradient>
					<path style="fill:url(#SVGID_00000163071368482702476290000003289784265362483879_);" d="M2694.176,966.351h102.658
						c6.443,0,11.667-5.223,11.667-11.667s-5.224-11.667-11.667-11.667h-102.658c-6.444,0-11.667,5.224-11.667,11.667
						S2687.732,966.351,2694.176,966.351z"/>
					
						<linearGradient id="SVGID_00000111184598438472080060000001868822145541065116_" gradientUnits="userSpaceOnUse" x1="2369.3799" y1="1025.3354" x2="2495.373" y2="1025.3354">
						<stop  offset="0" style="stop-color:#DAE3FE"/>
						<stop  offset="1" style="stop-color:#E9EFFD"/>
					</linearGradient>
					<path style="fill:url(#SVGID_00000111184598438472080060000001868822145541065116_);" d="M2483.705,979.315h-102.658
						c-6.444,0-11.667,5.224-11.667,11.667v68.707c0,6.444,5.224,11.667,11.667,11.667h102.658c6.444,0,11.668-5.223,11.668-11.667
						v-68.707C2495.373,984.539,2490.149,979.315,2483.705,979.315z"/>
					
						<linearGradient id="SVGID_00000146469843392106271010000011059663929282988186_" gradientUnits="userSpaceOnUse" x1="2525.9446" y1="1025.3354" x2="2651.937" y2="1025.3354">
						<stop  offset="0" style="stop-color:#DAE3FE"/>
						<stop  offset="1" style="stop-color:#E9EFFD"/>
					</linearGradient>
					<path style="fill:url(#SVGID_00000146469843392106271010000011059663929282988186_);" d="M2640.27,979.315h-102.658
						c-6.443,0-11.667,5.224-11.667,11.667v68.707c0,6.444,5.224,11.667,11.667,11.667h102.658c6.444,0,11.667-5.223,11.667-11.667
						v-68.707C2651.937,984.539,2646.714,979.315,2640.27,979.315z"/>
					
						<linearGradient id="SVGID_00000012471988364656582730000013067619644570863766_" gradientUnits="userSpaceOnUse" x1="2682.5088" y1="1025.3354" x2="2808.5015" y2="1025.3354">
						<stop  offset="0" style="stop-color:#DAE3FE"/>
						<stop  offset="1" style="stop-color:#E9EFFD"/>
					</linearGradient>
					<path style="fill:url(#SVGID_00000012471988364656582730000013067619644570863766_);" d="M2796.834,979.315h-102.658
						c-6.444,0-11.667,5.224-11.667,11.667v68.707c0,6.444,5.224,11.667,11.667,11.667h102.658c6.443,0,11.667-5.223,11.667-11.667
						v-68.707C2808.501,984.539,2803.278,979.315,2796.834,979.315z"/>
				</g>
			</g>
		</g>
		<g>
			<g>
				
					<linearGradient id="SVGID_00000070801635239387295140000015219399119845758360_" gradientUnits="userSpaceOnUse" x1="6668.7334" y1="3052.2708" x2="6196.7134" y2="3565.6965" gradientTransform="matrix(1 0.0095 -0.0095 1 -4973.9507 -63.4747)">
					<stop  offset="0" style="stop-color:#09005D"/>
					<stop  offset="1" style="stop-color:#1A0F91"/>
				</linearGradient>
				<path style="fill:url(#SVGID_00000070801635239387295140000015219399119845758360_);" d="M1516.216,3088.972
					c0,0-5.153,27.628-7.81,55.001c-1.039,10.698,7.126,20.072,17.86,20.622c36.467,1.867,114.477,5.567,142.491,4.584
					c4.212-0.148,7.005-4.431,5.484-8.361l0,0c-1.274-3.293-3.767-5.97-6.961-7.475l-128.337-60.473L1516.216,3088.972z"/>
				
					<linearGradient id="SVGID_00000033365310754402825210000002375413402333868215_" gradientUnits="userSpaceOnUse" x1="6515.5229" y1="3090.3989" x2="6557.4502" y2="3090.3989" gradientTransform="matrix(1 0.0095 -0.0095 1 -4973.9507 -63.4747)">
					<stop  offset="0" style="stop-color:#FEBBBA"/>
					<stop  offset="1" style="stop-color:#FF928E"/>
				</linearGradient>
				<path style="fill:url(#SVGID_00000033365310754402825210000002375413402333868215_);" d="M1512.367,3072.674l3.612,33.14
					c0,0,22.48,10.727,38.013-0.962l-8.999-36.979L1512.367,3072.674z"/>
				
					<linearGradient id="SVGID_00000162349730982260676420000016095324564846494134_" gradientUnits="userSpaceOnUse" x1="6705.9258" y1="2471.6023" x2="6304.2549" y2="3016.0156" gradientTransform="matrix(1 0.0095 -0.0095 1 -4973.9507 -63.4747)">
					<stop  offset="0" style="stop-color:#09005D"/>
					<stop  offset="1" style="stop-color:#1A0F91"/>
				</linearGradient>
				<path style="fill:url(#SVGID_00000162349730982260676420000016095324564846494134_);" d="M1521.256,2450.358
					c-1.779,8.628-13.222,431.299,30.158,621.176c0.708,3.098-0.89,6.27-3.843,7.443c-6.958,2.765-20.584,6.737-36.873,7.128
					c-5.044,0.122-9.534-3.199-10.911-8.053c-12.497-44.078-72.292-264.891-78.359-475.34c-6.78-235.157,0.076-8.004,0.076-8.004
					l6.677-145.256L1521.256,2450.358z"/>
				
					<linearGradient id="SVGID_00000173871445050655378510000011508298042416223115_" gradientUnits="userSpaceOnUse" x1="6562.8438" y1="2954.9036" x2="6090.8042" y2="3468.3506" gradientTransform="matrix(1 0.0095 -0.0095 1 -4973.9507 -63.4747)">
					<stop  offset="0" style="stop-color:#09005D"/>
					<stop  offset="1" style="stop-color:#1A0F91"/>
				</linearGradient>
				<path style="fill:url(#SVGID_00000173871445050655378510000011508298042416223115_);" d="M1367.798,3101.996
					c0,0-7.915,13.897-15.803,50.95c-1.425,6.692,3.199,13.153,10.001,13.888c12.036,1.3,30.566,3,45.422,3.04
					c6.848,0.018,12.249-5.894,11.489-12.7c-1.516-13.566-6.43-35.849-22.101-53.328L1367.798,3101.996z"/>
				
					<linearGradient id="SVGID_00000030474424522584272470000009725165501490602640_" gradientUnits="userSpaceOnUse" x1="6364.4126" y1="3088.2427" x2="6400.6123" y2="3088.2427" gradientTransform="matrix(1 0.0095 -0.0095 1 -4973.9507 -63.4747)">
					<stop  offset="0" style="stop-color:#FEBBBA"/>
					<stop  offset="1" style="stop-color:#FF928E"/>
				</linearGradient>
				<path style="fill:url(#SVGID_00000030474424522584272470000009725165501490602640_);" d="M1361.369,3059.353l8.699,50.148
					c0,0,9.01,6.836,27.007,2.114l-3.867-53.903L1361.369,3059.353z"/>
				
					<linearGradient id="SVGID_00000025412907706652057550000005233059767514565256_" gradientUnits="userSpaceOnUse" x1="6634.3374" y1="2418.7849" x2="6232.6709" y2="2963.1921" gradientTransform="matrix(1 0.0095 -0.0095 1 -4973.9507 -63.4747)">
					<stop  offset="0" style="stop-color:#09005D"/>
					<stop  offset="1" style="stop-color:#1A0F91"/>
				</linearGradient>
				<path style="fill:url(#SVGID_00000025412907706652057550000005233059767514565256_);" d="M1342.277,2461.625
					c-39.085,222.69,2.758,551.344,17.313,615.73c0.891,3.942,4.037,6.986,8.017,7.685c6.76,1.186,17.898,2.209,28.918-0.879
					c3.796-1.063,6.49-4.453,6.681-8.392c2.531-51.917,1.91-370.797,37.548-496.478c1.806-6.369,5.759-11.902,11.191-15.686
					l67.291-46.878l5.858-76.757L1342.277,2461.625z"/>
				<g>
					
						<linearGradient id="SVGID_00000147185506028124501910000010083864298189118878_" gradientUnits="userSpaceOnUse" x1="5713.1104" y1="3828.6421" x2="5786.6694" y2="3474.2207" gradientTransform="matrix(-1 0 0 1 7569.6606 0)">
						<stop  offset="0" style="stop-color:#FF928E"/>
						<stop  offset="1" style="stop-color:#FE7062"/>
					</linearGradient>
					<path style="fill:url(#SVGID_00000147185506028124501910000010083864298189118878_);" d="M1581.804,2041.249
						c-110.738-2.886-233.238,26.859-233.238,26.859c-34.852,192.319-9.73,414.77-9.73,414.77
						c85.529,23.303,182.599-12.007,182.599-12.007c15.019-80.381,83.674-306.347,83.674-306.347
						c54.178-6.199,98.906-21.387,135.814-41.678c-27.693-32.727-40.5-74.155-46-98.624
						C1655.647,2036.017,1615.96,2042.14,1581.804,2041.249z"/>
					
						<linearGradient id="SVGID_00000030475343628293460590000009577174656917036718_" gradientUnits="userSpaceOnUse" x1="6688.1025" y1="1996.5399" x2="6902.3145" y2="1996.5399" gradientTransform="matrix(1 0.0095 -0.0095 1 -4973.9507 -63.4747)">
						<stop  offset="0" style="stop-color:#FEBBBA"/>
						<stop  offset="1" style="stop-color:#FF928E"/>
					</linearGradient>
					<path style="fill:url(#SVGID_00000030475343628293460590000009577174656917036718_);" d="M1910.512,1881.234
						c-10.754-13.245-24.584-7.16-24.584-7.16c-16.955,68.691-102.947,123.698-191.005,150.147c5.5,24.469,18.308,65.898,46,98.624
						C1887.413,2042.309,1910.512,1881.234,1910.512,1881.234z"/>
				</g>
				<g>
					
						<linearGradient id="SVGID_00000134968594219787621090000011275685961143760783_" gradientUnits="userSpaceOnUse" x1="1900.5684" y1="1954.5123" x2="1925.0879" y2="1791.7906">
						<stop  offset="0" style="stop-color:#FEBBBA"/>
						<stop  offset="1" style="stop-color:#FF928E"/>
					</linearGradient>
					<path style="fill:url(#SVGID_00000134968594219787621090000011275685961143760783_);" d="M1907.839,1884.55
						c1.104,3.63-12.132,9.016-19.753-5.86c-0.203-7.097-4.228-37.53,0.066-43.269c22.871-30.564,67.01-68.731,67.01-68.731
						c7.328,7.371,1.166,14.483,1.166,14.483l-21.446,21.918c4.365,8.068,9.719,14.895,12.165,24.627
						c1.853,7.37,0.602,15.215-3.176,21.871c-3.792,6.679-8.96,15.36-13.833,22.145
						C1920.815,1884.577,1907.839,1884.55,1907.839,1884.55z"/>
					
						<linearGradient id="SVGID_00000048482634314423595820000010969415476225160616_" gradientUnits="userSpaceOnUse" x1="6901.2876" y1="1851.7231" x2="6961.2646" y2="1759.5085" gradientTransform="matrix(1 0.0095 -0.0095 1 -4973.9507 -63.4747)">
						<stop  offset="0" style="stop-color:#FEBBBA"/>
						<stop  offset="1" style="stop-color:#FF928E"/>
					</linearGradient>
					<path style="fill:url(#SVGID_00000048482634314423595820000010969415476225160616_);" d="M1925.458,1817.355l-19.507,16.219
						l-6.231,16.274l17.07,19.304c0,0,6.11-32.35,10.488-39.323C1931.657,1822.857,1929.453,1819.444,1925.458,1817.355z"/>
				</g>
				
					<linearGradient id="SVGID_00000099649592716663049180000016223802114938764173_" gradientUnits="userSpaceOnUse" x1="5914.8687" y1="3870.5144" x2="5988.4277" y2="3516.0933" gradientTransform="matrix(-1 0 0 1 7569.6606 0)">
					<stop  offset="0" style="stop-color:#FF928E"/>
					<stop  offset="1" style="stop-color:#FE7062"/>
				</linearGradient>
				<path style="fill:url(#SVGID_00000099649592716663049180000016223802114938764173_);" d="M1390.024,2175.757l-41.458-107.649
					c0,0-104.123,69.303-121.986,158.262c19.534,1.626,55.054,7.05,89.703,24.962
					C1324.335,2209.323,1390.024,2175.757,1390.024,2175.757z"/>
				
					<linearGradient id="SVGID_00000129892678021059598620000011487640677386472607_" gradientUnits="userSpaceOnUse" x1="6219.3643" y1="2299.936" x2="6490.4429" y2="2299.936" gradientTransform="matrix(1 0.0095 -0.0095 1 -4973.9507 -63.4747)">
					<stop  offset="0" style="stop-color:#FEBBBA"/>
					<stop  offset="1" style="stop-color:#FF928E"/>
				</linearGradient>
				<path style="fill:url(#SVGID_00000129892678021059598620000011487640677386472607_);" d="M1479.467,2277.532
					c0,0-116.776,64.534-155.433,8.109c-8.025-11.717-9.861-23.301-7.751-34.31c-34.649-17.912-70.169-23.335-89.703-24.962
					c-5.385,26.818-2.947,55.419,12.565,84.45c67.451,126.234,255.419-4.504,255.419-4.504L1479.467,2277.532z"/>
				
					<linearGradient id="SVGID_00000117675329185640770360000013321637002037842872_" gradientUnits="userSpaceOnUse" x1="6427.5244" y1="2010.1421" x2="6534.7046" y2="2010.1421" gradientTransform="matrix(1 0.0095 -0.0095 1 -4973.9507 -63.4747)">
					<stop  offset="0" style="stop-color:#FEBBBA"/>
					<stop  offset="1" style="stop-color:#FF928E"/>
				</linearGradient>
				<path style="fill:url(#SVGID_00000117675329185640770360000013321637002037842872_);" d="M1470.476,1950.263l-36.213,101.578
					c-0.6,1.682,0.076,3.559,1.632,4.438c9.556,5.402,44.018,21.084,85.978-4.96c4.371-2.713,7.372-7.178,8.08-12.273l12.253-88.098
					L1470.476,1950.263z"/>
				<g>
					
						<linearGradient id="SVGID_00000177471156130861094300000017184236787323843764_" gradientUnits="userSpaceOnUse" x1="-758.129" y1="3003.469" x2="-798.1805" y2="2871.3696" gradientTransform="matrix(0.7523 -0.6588 0.6588 0.7523 159.4521 -818.1582)">
						<stop  offset="0" style="stop-color:#FEBBBA"/>
						<stop  offset="1" style="stop-color:#FF928E"/>
					</linearGradient>
					<path style="fill:url(#SVGID_00000177471156130861094300000017184236787323843764_);" d="M1548.055,1856.62
						c0,0,38.004,73.214,32.762,102.592c-5.241,29.378-53.181,26.807-94.833,2.51l-28.514-78.935L1548.055,1856.62z"/>
					
						<linearGradient id="SVGID_00000006704678425952707840000005657062300324053402_" gradientUnits="userSpaceOnUse" x1="-794.2606" y1="2773.3049" x2="-760.7582" y2="2964.3931" gradientTransform="matrix(0.7523 -0.6588 0.6588 0.7523 159.4521 -818.1582)">
						<stop  offset="0" style="stop-color:#09005D"/>
						<stop  offset="1" style="stop-color:#1A0F91"/>
					</linearGradient>
					<path style="fill:url(#SVGID_00000006704678425952707840000005657062300324053402_);" d="M1488.204,1923.112
						c1.709-0.738,2.357-2.815,1.353-4.382c-3.056-4.766-8.775-14.484-10.549-22.961c0,0-6.914-4.522,17.805-10.19
						c24.72-5.668,61.586-14.48,69.516-35.398c7.732-20.396-11.58-72.056-43.566-31.346c-1.217,1.549-3.572,1.561-4.757-0.012
						c-5.114-6.79-18.598-20.913-37.584-12.61c-17.767,7.77-19.884,20.714-19.703,27.251c0.053,1.922-1.68,3.401-3.566,3.023
						c-8.928-1.792-30.379-3.461-40.608,18.462c-8.425,18.058-3.159,28.377,1.678,33.444c1.567,1.642,0.848,4.315-1.329,4.958
						c-5.896,1.744-13.534,6.656-12.906,20.436c0.869,19.05,22.173,17.576,28.242,16.765c0.994-0.132,1.992,0.218,2.657,0.969
						c5.142,5.8,28.323,30.443,53.637,33.628c2.192,0.276,3.913-1.875,3.215-3.971l-10.663-31.984
						c-0.495-1.485,0.229-3.103,1.666-3.723L1488.204,1923.112z"/>
					
						<linearGradient id="SVGID_00000070078299204808889420000015389281672655341242_" gradientUnits="userSpaceOnUse" x1="-799.0706" y1="3002.8523" x2="-835.1057" y2="2884" gradientTransform="matrix(0.7523 -0.6588 0.6588 0.7523 159.4521 -818.1582)">
						<stop  offset="0" style="stop-color:#FEBBBA"/>
						<stop  offset="1" style="stop-color:#FF928E"/>
					</linearGradient>
					<path style="fill:url(#SVGID_00000070078299204808889420000015389281672655341242_);" d="M1492.569,1927.679
						c0,0-27.373-19.167-29.538-3.266c-2.164,15.9,24.592,23.296,37.935,17.487L1492.569,1927.679z"/>
				</g>
				<g>
					<g>
						
							<linearGradient id="SVGID_00000128477258239568361040000000000273132189580463_" gradientUnits="userSpaceOnUse" x1="6272.9927" y1="2123.3015" x2="6422.5732" y2="2746.5557" gradientTransform="matrix(1 0 0 1 -4705.6621 0)">
							<stop  offset="0" style="stop-color:#09005D"/>
							<stop  offset="1" style="stop-color:#1A0F91"/>
						</linearGradient>
						<path style="fill:url(#SVGID_00000128477258239568361040000000000273132189580463_);" d="M1455.601,2379.521l63.613-222.15
							c0.722-2.522,2.874-4.361,5.479-4.665c11.525-1.345,44.923-5.12,83.482-8.382c46.446-3.929,100.385-7.112,132.616-4.404
							c4.582,0.385,7.351,5.231,5.313,9.354c-18.328,37.082-93.722,187.921-131.477,237.335c-1.251,1.637-3.185,2.594-5.245,2.575
							l-147.593-1.373C1457.495,2387.77,1454.419,2383.65,1455.601,2379.521z"/>
						
							<linearGradient id="SVGID_00000084521063268844991150000005725173840945231784_" gradientUnits="userSpaceOnUse" x1="6170.4956" y1="2288.1853" x2="6255.2446" y2="2288.1853" gradientTransform="matrix(1 0 0 1 -4705.6621 0)">
							<stop  offset="0" style="stop-color:#FEBBBA"/>
							<stop  offset="1" style="stop-color:#FF928E"/>
						</linearGradient>
						<path style="fill:url(#SVGID_00000084521063268844991150000005725173840945231784_);" d="M1470.97,2325.85
							c0,0-8.862-36.438-5.287-49.365c3.574-12.928,10.5-29.549,33.584-25.855c23.085,3.693,50.315,13.418,50.315,13.418
							s-1.375,16.838-18.92,11.406l10.88,8.418c0,0-1.555,13.482-16.375,6.279l10.119,11.164c0,0-6.365,11.073-17.268,3.971
							C1507.116,2298.184,1501.89,2330.237,1470.97,2325.85z"/>
					</g>
					<path style="fill:#91B3FA;" d="M1603.934,2210.641c0,10.313,8.36,18.673,18.673,18.673c10.313,0,18.673-8.36,18.673-18.673
						c0-10.314-8.36-18.674-18.673-18.674C1612.294,2191.967,1603.934,2200.327,1603.934,2210.641z"/>
					
						<linearGradient id="SVGID_00000119090638084721190960000005147475632339214477_" gradientUnits="userSpaceOnUse" x1="1521.6509" y1="2188.074" x2="1703.5043" y2="2188.074">
						<stop  offset="0" style="stop-color:#DAE3FE"/>
						<stop  offset="1" style="stop-color:#E9EFFD"/>
					</linearGradient>
					<path style="fill:url(#SVGID_00000119090638084721190960000005147475632339214477_);" d="M1526.411,2222.95l-4.76-1.406
						l12.951-43.934c2.113-7.155,7.889-12.531,15.071-14.024c41.052-8.571,149.174-10.316,153.754-10.389l0.077,4.964
						c-1.117,0.014-112.229,1.813-152.819,10.282c-5.39,1.125-9.729,5.173-11.324,10.573L1526.411,2222.95z"/>
				</g>
			</g>
			<g>
				<path style="fill:#7D97F4;" d="M773.564,2844.652c-6.781,10.034-33.731,237.217-37.95,321.124
					c-0.285,5.674,4.254,10.405,9.935,10.405l0,0c4.9,0,9.069-3.569,9.825-8.41l49.294-315.893L773.564,2844.652z"/>
				<path style="fill:#7D97F4;" d="M990.246,2844.652c6.781,10.034,33.732,237.217,37.95,321.124
					c0.286,5.674-4.253,10.405-9.935,10.405l0,0c-4.899,0-9.069-3.569-9.824-8.41l-49.295-315.893L990.246,2844.652z"/>
				<path style="fill:#7D97F4;" d="M732.796,2826.921l-0.023,2.477c-0.163,17.823,15.192,32.442,34.418,32.77l227.849,3.875
					c18.949,0.322,34.744-13.371,35.664-30.917l0.119-2.267c0.959-18.3-14.582-33.717-34.343-34.071l-227.946-4.085
					C749.024,2794.352,732.96,2808.834,732.796,2826.921z"/>
			</g>
			<g>
				<g>
					<path style="fill:#7D97F4;" d="M1212.768,3157.523c-40.503,0-58.424-3.475-66.437-6.644
						c1.558,6.652,7.482,11.903,14.968,11.903h143.288c4.825,0,7.871-4.618,6.718-8.801
						C1294.972,3155.295,1260.281,3157.523,1212.768,3157.523z"/>
					
						<linearGradient id="SVGID_00000178896429001506613010000000165352409733267343_" gradientUnits="userSpaceOnUse" x1="1273.6248" y1="2839.1382" x2="1228.483" y2="3151.0269">
						<stop  offset="0" style="stop-color:#4F52FF"/>
						<stop  offset="1" style="stop-color:#4042E2"/>
					</linearGradient>
					<path style="fill:url(#SVGID_00000178896429001506613010000000165352409733267343_);" d="M1311.305,3153.982
						c-0.232-0.844-0.574-1.673-1.173-2.438c-10.915-13.935-32.841-35.82-62.667-35.4c-43.693,0.615-58.927,5.354-92.881,0.266
						l-8.01,26.551c-0.816,2.706-0.831,5.41-0.243,7.92c8.013,3.169,25.934,6.644,66.437,6.644
						C1260.281,3157.523,1294.972,3155.295,1311.305,3153.982z"/>
				</g>
				
					<linearGradient id="SVGID_00000117676677175686985110000012680454625701407388_" gradientUnits="userSpaceOnUse" x1="1154.5839" y1="3107.0422" x2="1199.2869" y2="3107.0422">
					<stop  offset="0" style="stop-color:#FEBBBA"/>
					<stop  offset="1" style="stop-color:#FF928E"/>
				</linearGradient>
				<path style="fill:url(#SVGID_00000117676677175686985110000012680454625701407388_);" d="M1164.417,3087.798l-9.833,33.44
					c0,0,21.782,9.916,40.941,1.955l3.762-28.972L1164.417,3087.798z"/>
				<g>
					<path style="fill:#7D97F4;" d="M1461.399,3136.464c-31.574,25.369-47.71,33.899-55.932,36.458
						c5.361,4.186,13.252,4.549,19.088-0.141l111.699-89.749c3.761-3.023,3.256-8.514-0.249-11.036
						C1524.091,3083.247,1498.437,3106.704,1461.399,3136.464z"/>
					
						<linearGradient id="SVGID_00000066482930437116846030000016441230329100405150_" gradientUnits="userSpaceOnUse" x1="1497.2227" y1="2871.4983" x2="1452.0807" y2="3183.3894">
						<stop  offset="0" style="stop-color:#4F52FF"/>
						<stop  offset="1" style="stop-color:#4042E2"/>
					</linearGradient>
					<path style="fill:url(#SVGID_00000066482930437116846030000016441230329100405150_);" d="M1536.005,3071.997
						c-0.707-0.509-1.491-0.939-2.435-1.157c-17.195-3.975-47.931-7.221-70.919,11.786c-33.677,27.845-42.598,41.064-72.238,58.383
						l10.306,25.616c1.051,2.611,2.725,4.717,4.749,6.297c8.221-2.56,24.358-11.089,55.932-36.458
						C1498.437,3106.704,1524.091,3083.247,1536.005,3071.997z"/>
				</g>
				
					<linearGradient id="SVGID_00000049215472775789945900000001725554608038668472_" gradientUnits="userSpaceOnUse" x1="1664.0062" y1="2471.9927" x2="1162.4906" y2="2843.1138">
					<stop  offset="0" style="stop-color:#09005D"/>
					<stop  offset="1" style="stop-color:#1A0F91"/>
				</linearGradient>
				<path style="fill:url(#SVGID_00000049215472775789945900000001725554608038668472_);" d="M954.083,2706.802
					c0,0,242.495,19.8,292.241,43.218c49.746,23.418-40.595,351.632-40.595,351.632s-13.543,6.518-43.677-2.85
					c0,0,30.901-242.209,7.907-294.73l-262.559-42.945L954.083,2706.802z"/>
				
					<linearGradient id="SVGID_00000124161139506615790610000005605451511589384621_" gradientUnits="userSpaceOnUse" x1="1366.3185" y1="3110.8044" x2="1419.6875" y2="3110.8044">
					<stop  offset="0" style="stop-color:#FEBBBA"/>
					<stop  offset="1" style="stop-color:#FF928E"/>
				</linearGradient>
				<path style="fill:url(#SVGID_00000124161139506615790610000005605451511589384621_);" d="M1366.318,3094.905
					c2.252,2.052,24.094,46.104,24.094,46.104s24.316-5.261,29.275-20.65l-21.88-39.76L1366.318,3094.905z"/>
				
					<linearGradient id="SVGID_00000020388589212151993930000013624699534675166616_" gradientUnits="userSpaceOnUse" x1="1166.7933" y1="2855.3462" x2="1802.0784" y2="2417.3347">
					<stop  offset="0" style="stop-color:#09005D"/>
					<stop  offset="1" style="stop-color:#1A0F91"/>
				</linearGradient>
				<path style="fill:url(#SVGID_00000020388589212151993930000013624699534675166616_);" d="M808.031,2704.775
					c0,0-7.903,19.014-7.58,44.283c0.446,34.946,28.54,63.302,63.445,65.045l286.668,13.073c6.054,0.276,11.176,4.466,12.693,10.333
					c6.736,26.056,39.663,106.072,200.618,265.737c4.282,4.248,10.953,4.971,16.052,1.749l22.912-14.473
					c2.406-1.52,3.173-4.673,1.735-7.127l-166.913-285.03c-8.767-14.468-22.86-24.92-39.249-29.109l-244.33-62.455L808.031,2704.775
					z"/>
				
					<linearGradient id="SVGID_00000078767952819765028500000001477779401082425232_" gradientUnits="userSpaceOnUse" x1="1069.8717" y1="2358.7488" x2="1096.1835" y2="2292.3975">
					<stop  offset="0" style="stop-color:#FEBBBA"/>
					<stop  offset="1" style="stop-color:#FF928E"/>
				</linearGradient>
				<path style="fill:url(#SVGID_00000078767952819765028500000001477779401082425232_);" d="M1090.539,2259.534
					c0,0-30.709,54.297-62.019,80.601l64.716,36.108c0,0,14.583-57.48,47.9-74.313L1090.539,2259.534z"/>
				
					<linearGradient id="SVGID_00000019671174826956384310000010728958007698129852_" gradientUnits="userSpaceOnUse" x1="1247.0531" y1="2160.6111" x2="1163.463" y2="2374.6013">
					<stop  offset="0" style="stop-color:#FF928E"/>
					<stop  offset="1" style="stop-color:#FE7062"/>
				</linearGradient>
				<path style="fill:url(#SVGID_00000019671174826956384310000010728958007698129852_);" d="M802.823,2706.802
					c0,0,77.39,18.86,151.26,0c0,0,103.364-138.951,143.353-176.77c0,0,63.786,100.655,205.763,114.918l7.918-17.694
					c0,0-113.029-52.104-147.824-132.162c-34.796-80.059-48.772-114.204-80.429-135.092c-19.715-13.009-31.52-21.895-37.62-26.748
					c-3.34-2.657-7.95-2.958-11.594-0.737C1000.053,2352.991,841.974,2461.259,802.823,2706.802z"/>
				
					<linearGradient id="SVGID_00000034792198808162751290000011363107542424283580_" gradientUnits="userSpaceOnUse" x1="1093.2065" y1="1866.7546" x2="1068.1307" y2="2684.2219">
					<stop  offset="0" style="stop-color:#E1473D"/>
					<stop  offset="1" style="stop-color:#E9605A"/>
				</linearGradient>
				<path style="fill:url(#SVGID_00000034792198808162751290000011363107542424283580_);" d="M1093.24,2528.074
					c-1.491,0-2.964-0.669-3.941-1.944c-24.645-32.135-38.371-67.557-38.943-69.045c-0.981-2.56,0.296-5.429,2.855-6.414
					c2.564-0.984,5.43,0.296,6.413,2.855c0.135,0.354,13.813,35.606,37.552,66.563c1.668,2.177,1.258,5.289-0.918,6.961
					C1095.358,2527.74,1094.294,2528.074,1093.24,2528.074z"/>
				
					<linearGradient id="SVGID_00000178897435835275592240000005790544329358426281_" gradientUnits="userSpaceOnUse" x1="1294.6621" y1="2616.792" x2="1417.9382" y2="2616.792">
					<stop  offset="0" style="stop-color:#FEBBBA"/>
					<stop  offset="1" style="stop-color:#FF928E"/>
				</linearGradient>
				<path style="fill:url(#SVGID_00000178897435835275592240000005790544329358426281_);" d="M1294.662,2618.015l15.981-4.26
					l48.521-11.236c5.841-1.353,11.98-0.318,17.055,2.875l41.719,26.249l-115.213-0.194L1294.662,2618.015z"/>
				<g>
					
						<linearGradient id="SVGID_00000093857761952178743290000009042658549071276201_" gradientUnits="userSpaceOnUse" x1="3022.165" y1="2703.134" x2="2890.0571" y2="2804.2168" gradientTransform="matrix(0.9914 -0.1306 0.1306 0.9914 -2198.9988 -61.3823)">
						<stop  offset="0" style="stop-color:#FEBBBA"/>
						<stop  offset="1" style="stop-color:#FF928E"/>
					</linearGradient>
					<path style="fill:url(#SVGID_00000093857761952178743290000009042658549071276201_);" d="M1139.299,2178.116
						c0,0,29.844,49.611,35.023,77.032c5.178,27.42,13.492,44.561-17.715,54.331c-31.208,9.771-60.211-2.595-78.412-28.191
						c0,0-28.425-39.391-25.59-57.429C1055.44,2205.821,1139.299,2178.116,1139.299,2178.116z"/>
					
						<linearGradient id="SVGID_00000075874182613648507440000000311570086022329987_" gradientUnits="userSpaceOnUse" x1="2929.353" y1="2623.3391" x2="3048.981" y2="2777.3599" gradientTransform="matrix(0.9914 -0.1306 0.1306 0.9914 -2198.9988 -61.3823)">
						<stop  offset="0" style="stop-color:#09005D"/>
						<stop  offset="1" style="stop-color:#1A0F91"/>
					</linearGradient>
					<path style="fill:url(#SVGID_00000075874182613648507440000000311570086022329987_);" d="M1086.502,2260.066l4.037-0.532
						c0,0-21.133-31.933-7.304-39.854c13.828-7.921,70.177-27.358,79.964-49.551c9.434-21.394-4.678-45.565-21.692-50.608
						c-1.076-0.319-2.212,0.317-2.602,1.37l-1,2.694c-0.684,1.845-3.267,1.919-4.056,0.117l0,0c-0.748-1.71-3.196-1.782-3.967-0.082
						c-3.015,6.648-12.054,18.004-39.153,26.789c-38.451,12.466-62.404,31.848-59.455,59.169c0.187,1.73-1.532,2.925-3.124,2.221
						c-3.143-1.39-7.909-1.608-13.441,4.444c-9.622,10.524-2.085,33.544,24.195,49.835c1.248,0.774,1.471,2.535,0.355,3.491
						c-3.931,3.366-9.463,10.872,8.318,17.563c18.189,6.844,28.114,4.529,31.782,3.058c0.987-0.396,1.55-1.417,1.347-2.461
						l-4.671-23.94c-0.242-1.238,0.611-2.424,1.861-2.589L1086.502,2260.066z"/>
					
						<linearGradient id="SVGID_00000127023470804362474900000001717309076155408809_" gradientUnits="userSpaceOnUse" x1="3005.7781" y1="2681.7192" x2="2873.6711" y2="2782.8013" gradientTransform="matrix(0.9914 -0.1306 0.1306 0.9914 -2198.9988 -61.3823)">
						<stop  offset="0" style="stop-color:#FEBBBA"/>
						<stop  offset="1" style="stop-color:#FF928E"/>
					</linearGradient>
					<path style="fill:url(#SVGID_00000127023470804362474900000001717309076155408809_);" d="M1088.159,2264.986
						c0,0-13.169-32.467-27-21.055c-13.831,11.412,12.785,36.638,25.068,36.3L1088.159,2264.986z"/>
				</g>
			</g>
			<g>
				<g>
					
						<linearGradient id="SVGID_00000153683019679471968160000000458580795214402182_" gradientUnits="userSpaceOnUse" x1="15574.0176" y1="-17282.8633" x2="15244.3242" y2="-16964.1133" gradientTransform="matrix(-1.388 -0.0686 -0.0685 1.3855 -4690.1738 -570.6171)">
						<stop  offset="0" style="stop-color:#09005D"/>
						<stop  offset="1" style="stop-color:#1A0F91"/>
					</linearGradient>
					<path style="fill:url(#SVGID_00000153683019679471968160000000458580795214402182_);" d="M1250.151,2654.245
						c0.188,0.01,0.376,0.014,0.566,0.013l246.132-0.245c6.084-0.005,11.011-4.933,11.004-11.007
						c-0.006-6.075-4.962-11.095-11.03-10.986l-246.132,0.246c-6.084,0.005-11.011,4.933-11.004,11.006
						C1239.693,2649.156,1244.329,2653.957,1250.151,2654.245z"/>
				</g>
				<g>
					
						<linearGradient id="SVGID_00000104687695515439670890000002115020304721910416_" gradientUnits="userSpaceOnUse" x1="12523.5264" y1="-17454.1328" x2="12193.8467" y2="-17135.3965" gradientTransform="matrix(0.6475 -1.2297 -1.2274 -0.6463 8775.9707 -5472.2012)">
						<stop  offset="0" style="stop-color:#09005D"/>
						<stop  offset="1" style="stop-color:#1A0F91"/>
					</linearGradient>
					<path style="fill:url(#SVGID_00000104687695515439670890000002115020304721910416_);" d="M1592.168,2413.204
						c-0.088,0.167-0.172,0.335-0.251,0.508l-103.562,223.285c-2.562,5.519-0.17,12.064,5.34,14.619
						c5.512,2.556,12.153,0.179,14.613-5.37l103.562-223.284c2.561-5.52,0.17-12.064-5.34-14.619
						C1601.192,2405.868,1594.884,2408.047,1592.168,2413.204z"/>
				</g>
			</g>
			<g>
				<g>
					<rect x="2210.712" y="2878.643" style="fill:#7D97F4;" width="25.978" height="280.935"/>
					<path style="fill:#7D97F4;" d="M2337.464,3164.994h-227.528l0,0c0-9.339,7.571-16.91,16.91-16.91h193.708
						C2329.893,3148.084,2337.464,3155.655,2337.464,3164.994L2337.464,3164.994z"/>
					<path style="fill:#7D97F4;" d="M2371.232,2868.892c0,15.365-12.571,27.937-27.937,27.937h-230.199
						c-15.365,0-27.937-12.571-27.937-27.937v-25.26c0-15.365,12.571-27.937,27.937-27.937h230.199
						c15.365,0,27.937,12.571,27.937,27.937V2868.892z"/>
				</g>
				<g>
					
						<linearGradient id="SVGID_00000134251104656173781690000011877143514688021129_" gradientUnits="userSpaceOnUse" x1="1940.1995" y1="2921.7983" x2="2124.9114" y2="2921.7983">
						<stop  offset="0" style="stop-color:#FEBBBA"/>
						<stop  offset="1" style="stop-color:#FF928E"/>
					</linearGradient>
					<path style="fill:url(#SVGID_00000134251104656173781690000011877143514688021129_);" d="M2031.919,2691.323
						c0,0-38.602,5.984-82.003,34.998c-6.83,4.566-10.577,12.526-9.548,20.677c5.197,41.165,26.565,174.405,97.026,304.542
						c3.716,6.862,4.783,14.85,3.144,22.479l-12.242,56.969l-22.702,21.286h58.474l38.933-105.36l-16.648-5.264
						c-12.908-4.082-21.764-15.954-21.998-29.49l-1.953-113.022c1.667-50.354-30.875-85.097-30.875-85.097l93.385-4.543
						L2031.919,2691.323z"/>
					
						<linearGradient id="SVGID_00000145777459177753731120000008044155489314295467_" gradientUnits="userSpaceOnUse" x1="2053.2175" y1="3042.1567" x2="2026.0494" y2="3458.7351">
						<stop  offset="0" style="stop-color:#4F52FF"/>
						<stop  offset="1" style="stop-color:#4042E2"/>
					</linearGradient>
					<path style="fill:url(#SVGID_00000145777459177753731120000008044155489314295467_);" d="M1982.762,3162.551
						c-5.325,6.969,57.315,16.166,88.963,0.922c0,0,43.871-76.328,43.871-115.628c0,0-3.482-8.013-29.242-6.196
						c0,0-14.73,90.377-30.284,100.501c-15.554,10.124-43.517,1.024-43.517,1.024S1990.619,3152.268,1982.762,3162.551z"/>
					
						<linearGradient id="SVGID_00000000908911370332507340000010943793028233117374_" gradientUnits="userSpaceOnUse" x1="1723.317" y1="2934.416" x2="2113.0962" y2="2934.416">
						<stop  offset="0" style="stop-color:#FEBBBA"/>
						<stop  offset="1" style="stop-color:#FF928E"/>
					</linearGradient>
					<path style="fill:url(#SVGID_00000000908911370332507340000010943793028233117374_);" d="M2113.096,2815.695
						c-0.497-0.86-100.543-12.03-100.543-12.03s3.274,30.419-6.958,72.294c-10.233,41.875-157.122,223.3-157.122,223.3
						l15.402,48.825c-47.62,16.589-94.463,19.24-140.557,8.456l95.451-57.28c0,0,89.331-304.424,144.049-358.732l100.285-34.695
						L2113.096,2815.695z"/>
					
						<linearGradient id="SVGID_00000114787226156691274900000000080753480622158746_" gradientUnits="userSpaceOnUse" x1="1963.8241" y1="2731.082" x2="2400.4885" y2="2731.082">
						<stop  offset="0" style="stop-color:#09005D"/>
						<stop  offset="1" style="stop-color:#1A0F91"/>
					</linearGradient>
					<path style="fill:url(#SVGID_00000114787226156691274900000000080753480622158746_);" d="M2337.464,2638.562
						c0,0,57.642,85.734,62.371,124.842c4.729,39.108-15.79,54.999-76.27,57.62c-60.481,2.621-221.939,2.578-221.939,2.578
						l-137.803-117.77c0,0,100.424-35.834,126.535-45.967C2116.468,2649.733,2337.464,2638.562,2337.464,2638.562z"/>
					
						<linearGradient id="SVGID_00000091001181691477932510000004657399274670952844_" gradientUnits="userSpaceOnUse" x1="1791.0477" y1="3025.0588" x2="1763.8796" y2="3441.6372">
						<stop  offset="0" style="stop-color:#4F52FF"/>
						<stop  offset="1" style="stop-color:#4042E2"/>
					</linearGradient>
					<path style="fill:url(#SVGID_00000091001181691477932510000004657399274670952844_);" d="M1858.054,3131.641
						c0,0,16.582,16.061,5.38,33.93c0,0-131.356,23.283-167.02,12.719c0,0,7.405-16.902,47.564-36.141l-2.963,2.275
						c-3.75,2.878-1.551,8.875,3.169,8.606C1770.648,3151.521,1825.413,3146.673,1858.054,3131.641z"/>
				</g>
				<g>
					
						<linearGradient id="SVGID_00000121975794137355051680000010929307657211674038_" gradientUnits="userSpaceOnUse" x1="2271.4087" y1="2001.7517" x2="2207.1106" y2="2339.5444">
						<stop  offset="0" style="stop-color:#09005D"/>
						<stop  offset="1" style="stop-color:#1A0F91"/>
					</linearGradient>
					<path style="fill:url(#SVGID_00000121975794137355051680000010929307657211674038_);" d="M2087.782,2094.849
						c117.827-20.032,173.301,76.068,169.247,96.26c-0.538,2.678,1.987,4.945,4.625,4.234c13.527-3.641,43.411-8.232,61.936,14.981
						c16.355,20.494,4.133,39.834-5.833,50.45c-2.406,2.563-0.383,6.726,3.105,6.286c24.871-3.139,78.912-3.892,87.754,46.733
						c8.245,47.209-24.614,60.522-44.102,64.275c-3.298,0.635-4.068,4.968-1.233,6.767c9.722,6.168,20.986,18.912,16.435,44.065
						c-7.135,39.422-84.425,36.195-93.458,35.681c-0.572-0.032-1.114-0.198-1.611-0.481l-123.799-70.605
						c-0.965-0.55-1.634-1.503-1.823-2.598l-24.992-144.341c-0.203-1.167,0.163-2.362,0.985-3.216l-80.706-113.895
						C2025.014,2125.135,2086.393,2095.085,2087.782,2094.849z"/>
					
						<linearGradient id="SVGID_00000177473856758481396460000003761416666468875420_" gradientUnits="userSpaceOnUse" x1="2700.989" y1="1361.1907" x2="2453.563" y2="1963.0377">
						<stop  offset="0" style="stop-color:#FF928E"/>
						<stop  offset="1" style="stop-color:#FE7062"/>
					</linearGradient>
					<path style="fill:url(#SVGID_00000177473856758481396460000003761416666468875420_);" d="M2181.58,2627.212
						c0,0-67.123-63.915-100.164-106.249c-17.86-22.884-23.469-53.009-15.209-80.838c15.085-50.822,41.893-103.459,44.338-111.652
						c3.747-12.558,79.01-12.035,79.01-12.035s148.103,96.12,206.293,258.94l-65.351,20.345c0,0-38.67-64.876-76.877-106.122
						c0,0,66.113,87.338,68.441,123.092L2181.58,2627.212z"/>
					
						<linearGradient id="SVGID_00000146493358209539683460000005338695889337747871_" gradientUnits="userSpaceOnUse" x1="2165.0039" y1="2424.3704" x2="2138.6929" y2="2255.5413">
						<stop  offset="0" style="stop-color:#FEBBBA"/>
						<stop  offset="1" style="stop-color:#FF928E"/>
					</linearGradient>
					<path style="fill:url(#SVGID_00000146493358209539683460000005338695889337747871_);" d="M2101.443,2258.294
						c0.786,2.61,20.43,67.733,21.966,69.084c1.537,1.352,43.08,3.586,62.635-9.779l-48.505-94.877L2101.443,2258.294z"/>
					<g>
						
							<linearGradient id="SVGID_00000180333801761324181510000010558907209996081841_" gradientUnits="userSpaceOnUse" x1="-483.9142" y1="6013.7305" x2="-311.6957" y2="6130.709" gradientTransform="matrix(0.6042 -0.7968 0.7968 0.6042 -2477.407 -1773.6736)">
							<stop  offset="0" style="stop-color:#FEBBBA"/>
							<stop  offset="1" style="stop-color:#FF928E"/>
						</linearGradient>
						<path style="fill:url(#SVGID_00000180333801761324181510000010558907209996081841_);" d="M2022.692,2174.616
							c0,0-9.494,37.306,16.771,87.483c26.265,50.176,56,50.123,72.253,34.063c16.254-16.061,36.297-43.313,31.536-91.825
							C2138.492,2155.825,2036.402,2127.156,2022.692,2174.616z"/>
						
							<linearGradient id="SVGID_00000010989288849363289780000009266452919442854032_" gradientUnits="userSpaceOnUse" x1="-369.0322" y1="5873.8115" x2="-433.331" y2="6211.6079" gradientTransform="matrix(0.6042 -0.7968 0.7968 0.6042 -2477.407 -1773.6736)">
							<stop  offset="0" style="stop-color:#09005D"/>
							<stop  offset="1" style="stop-color:#1A0F91"/>
						</linearGradient>
						<path style="fill:url(#SVGID_00000010989288849363289780000009266452919442854032_);" d="M2106.921,2206.971
							c0,0-43.577-66.619-84.444-14.187l-0.739,19.069c0,0-47.859-5.681-39.484-49.567c8.375-43.887,49.742-71.316,103.009-52.306
							c53.267,19.01,83.792,38.505,87.229,76.678c3.438,38.173-26.933,29.803-26.933,29.803s-9.906-26.879-23.99-29.674
							c-14.085-2.795-10.423,18.167-10.423,18.167L2106.921,2206.971z"/>
						
							<linearGradient id="SVGID_00000173153769925391442940000013394980779898429845_" gradientUnits="userSpaceOnUse" x1="-473.5906" y1="5998.5317" x2="-301.3731" y2="6115.5098" gradientTransform="matrix(0.6042 -0.7968 0.7968 0.6042 -2477.407 -1773.6736)">
							<stop  offset="0" style="stop-color:#FEBBBA"/>
							<stop  offset="1" style="stop-color:#FF928E"/>
						</linearGradient>
						<path style="fill:url(#SVGID_00000173153769925391442940000013394980779898429845_);" d="M2118.079,2206.076
							c0,0-22.601-34.114,0.558-39.201c23.16-5.088,19.566,33.242,17.066,47.418L2118.079,2206.076z"/>
					</g>
					
						<linearGradient id="SVGID_00000173151623747460858210000017693653925238816168_" gradientUnits="userSpaceOnUse" x1="2273.0466" y1="2616.0642" x2="2639.197" y2="2616.0642">
						<stop  offset="0" style="stop-color:#FEBBBA"/>
						<stop  offset="1" style="stop-color:#FF928E"/>
					</linearGradient>
					<path style="fill:url(#SVGID_00000173151623747460858210000017693653925238816168_);" d="M2044.834,2631.958l49.317-47.534
						l68.223,28.821c0,0,67.909,10.521,106.776,0c38.867-10.522,38.867-10.522,38.867-10.522l87.831-27.344l13.794,38.985
						c3.502,9.897-0.017,20.886-8.576,26.968c-7.598,5.399-16.506,11.334-22.182,13.817c-11.567,5.06-285.127-3.501-285.127-3.501
						L2044.834,2631.958z"/>
				</g>
				<g>
					
						<linearGradient id="SVGID_00000015335561352992791650000011327311370781897910_" gradientUnits="userSpaceOnUse" x1="2188.5032" y1="2744.7959" x2="1958.0087" y2="2807.9683" gradientTransform="matrix(0.9988 -0.0494 0.0494 0.9988 -41.469 -55.0328)">
						<stop  offset="0" style="stop-color:#09005D"/>
						<stop  offset="1" style="stop-color:#1A0F91"/>
					</linearGradient>
					<path style="fill:url(#SVGID_00000015335561352992791650000011327311370781897910_);" d="M2231.465,2654.368
						c-0.219,0.011-0.438,0.017-0.658,0.015l-286.078-0.313c-7.072-0.005-12.799-5.745-12.792-12.817
						c0.007-7.075,5.767-12.919,12.82-12.792l286.078,0.312c7.072,0.006,12.799,5.745,12.792,12.817
						C2243.619,2648.443,2238.231,2654.033,2231.465,2654.368z"/>
					
						<linearGradient id="SVGID_00000150794554437866967280000004764567343629596842_" gradientUnits="userSpaceOnUse" x1="1968.0376" y1="2429.4556" x2="1804.4912" y2="2602.314">
						<stop  offset="0" style="stop-color:#09005D"/>
						<stop  offset="1" style="stop-color:#1A0F91"/>
					</linearGradient>
					<path style="fill:url(#SVGID_00000150794554437866967280000004764567343629596842_);" d="M1687.557,2394.626h238.248
						c17.575,0,33.573,10.143,41.069,26.04l110.142,233.549h-296.078c-11.326,0-21.502-6.92-25.665-17.454l-85.41-216.115
						C1664.927,2408.159,1674.13,2394.626,1687.557,2394.626z"/>
					<path style="fill:#91B3FA;" d="M1855.405,2514.375c5.163,16.04,1.349,31.618-8.519,34.794
						c-9.868,3.176-22.052-7.252-27.215-23.293c-5.163-16.04-1.349-31.618,8.519-34.794
						C1838.058,2487.906,1850.242,2498.334,1855.405,2514.375z"/>
				</g>
			</g>
			<g>
				<g>
					
						<linearGradient id="SVGID_00000029010757529791150330000013428000519748883127_" gradientUnits="userSpaceOnUse" x1="-9199.2295" y1="3431.4849" x2="-9196.8154" y2="3687.47" gradientTransform="matrix(-1 0 0 1 -6719.2798 0)">
						<stop  offset="0" style="stop-color:#09005D"/>
						<stop  offset="1" style="stop-color:#1A0F91"/>
					</linearGradient>
					<path style="fill:url(#SVGID_00000029010757529791150330000013428000519748883127_);" d="M2557.616,3129.584
						c0,0,3.002,16.672,4.188,36.464c0.506,8.433-5.744,15.761-14.153,16.577c-29.282,2.84-95.935,8.084-138.494,1.942
						c-5.962-0.86-8.33-8.183-3.923-12.289c17.549-16.35,59.929-48.153,129.684-55.104L2557.616,3129.584z"/>
					
						<linearGradient id="SVGID_00000161606773969203287050000013821102520844049795_" gradientUnits="userSpaceOnUse" x1="-9260.9346" y1="3145.6143" x2="-9274.2168" y2="3041.7715" gradientTransform="matrix(-1 0 0 1 -6719.2798 0)">
						<stop  offset="0" style="stop-color:#FEBBBA"/>
						<stop  offset="1" style="stop-color:#FF928E"/>
					</linearGradient>
					<path style="fill:url(#SVGID_00000161606773969203287050000013821102520844049795_);" d="M2572.173,3092.003l-14.804,36.288
						c-2.029,4.973-7.074,8.064-12.416,7.505c-3.625-0.379-7.917-1.075-12.094-2.343c-8.355-2.536-13.067-11.392-10.566-19.758
						l11.174-37.376L2572.173,3092.003z"/>
					
						<linearGradient id="SVGID_00000179610449449322579000000011692769104483685561_" gradientUnits="userSpaceOnUse" x1="-9545.083" y1="3434.7463" x2="-9542.668" y2="3690.7297" gradientTransform="matrix(-1 0 0 1 -6719.2798 0)">
						<stop  offset="0" style="stop-color:#09005D"/>
						<stop  offset="1" style="stop-color:#1A0F91"/>
					</linearGradient>
					<path style="fill:url(#SVGID_00000179610449449322579000000011692769104483685561_);" d="M2825.284,3158.485
						c0,0-29.646,24.804-41.196,56.622c-3.177,8.751,3.538,17.969,12.848,17.969h61.007c8.93,0,15.775-8.033,14.22-16.825
						C2868.276,3194.281,2857.07,3158.577,2825.284,3158.485z"/>
					
						<linearGradient id="SVGID_00000069356390389798839930000015088314520180945832_" gradientUnits="userSpaceOnUse" x1="-9551.2363" y1="3181.2043" x2="-9564.1797" y2="3080.0122" gradientTransform="matrix(-1 0 0 1 -6719.2798 0)">
						<stop  offset="0" style="stop-color:#FEBBBA"/>
						<stop  offset="1" style="stop-color:#FF928E"/>
					</linearGradient>
					<path style="fill:url(#SVGID_00000069356390389798839930000015088314520180945832_);" d="M2862.01,3126.203
						c0,0-5.988,26.505-10.592,44.021c-0.835,3.179-4.228,4.924-7.324,3.817c-9.233-3.301-16.745-4.76-22.207-4.028
						c-2.525,0.339-4.729-1.761-4.762-4.308l-0.574-44.024L2862.01,3126.203z"/>
					
						<linearGradient id="SVGID_00000103244175195023804220000012116985144669860280_" gradientUnits="userSpaceOnUse" x1="-9641.6875" y1="2796.6917" x2="-9243.2979" y2="2796.6917" gradientTransform="matrix(-1 0 0 1 -6719.2798 0)">
						<stop  offset="0" style="stop-color:#09005D"/>
						<stop  offset="1" style="stop-color:#1A0F91"/>
					</linearGradient>
					<path style="fill:url(#SVGID_00000103244175195023804220000012116985144669860280_);" d="M2704.34,2529.794l-180.322,550.116
						c0,0,34.587,22.651,51.064,21.707l214.182-442.108c0,0,37.479,272.411,19.319,467.982l61.347,4.68
						c0,0,99.752-499.782,24.197-670.961L2704.34,2529.794z"/>
					<path style="fill:#91B3FA;" d="M2788.105,2654.757c0.071,0,0.146-0.006,0.22-0.014c0.957-0.121,1.635-0.994,1.514-1.95
						l-6.998-55.543c-0.119-0.955-0.984-1.622-1.951-1.514c-0.956,0.121-1.635,0.994-1.514,1.95l6.998,55.543
						C2786.485,2654.112,2787.237,2654.757,2788.105,2654.757z"/>
				</g>
				
					<linearGradient id="SVGID_00000114039627209877399980000012667740485711989160_" gradientUnits="userSpaceOnUse" x1="3080.6433" y1="1817.6929" x2="2983.679" y2="1951.4369">
					<stop  offset="0" style="stop-color:#FF928E"/>
					<stop  offset="1" style="stop-color:#FE7062"/>
				</linearGradient>
				<path style="fill:url(#SVGID_00000114039627209877399980000012667740485711989160_);" d="M2670.533,2045.719
					c0,0,146.095,12.973,125.429,117.069c0,0,80.758,151.977,118.514,331.005c1.229,5.825-2.674,11.507-8.542,12.512
					l-243.297,41.657c-6.712,1.149-13.184-3.036-14.89-9.629l-58.132-224.667l-22.653,104.456l-71.978-18.754l60.593-306.941
					C2555.578,2092.427,2564.031,2047.644,2670.533,2045.719z"/>
				
					<linearGradient id="SVGID_00000073707629782167593550000001950084252554018178_" gradientUnits="userSpaceOnUse" x1="3087.1904" y1="1640.1305" x2="2542.1831" y2="2298.8213">
					<stop  offset="0" style="stop-color:#E1473D"/>
					<stop  offset="1" style="stop-color:#E9605A"/>
				</linearGradient>
				<path style="fill:url(#SVGID_00000073707629782167593550000001950084252554018178_);" d="M2588.377,2303.617
					c0.127,0,0.256-0.012,0.387-0.041c0.977-0.214,1.597-1.178,1.385-2.156l-20.281-93.122c-0.214-0.976-1.166-1.592-2.156-1.385
					c-0.976,0.214-1.597,1.178-1.385,2.156l20.281,93.122C2586.794,2303.039,2587.544,2303.617,2588.377,2303.617z"/>
				
					<linearGradient id="SVGID_00000059302795509145309600000012589337885995287687_" gradientUnits="userSpaceOnUse" x1="2854.2012" y1="2332.7249" x2="2558.3076" y2="2648.6792">
					<stop  offset="0" style="stop-color:#FEBBBA"/>
					<stop  offset="1" style="stop-color:#FF928E"/>
				</linearGradient>
				<path style="fill:url(#SVGID_00000059302795509145309600000012589337885995287687_);" d="M2603.063,2580.722
					c7.664-4.214,16.635-5.381,25.123-3.268l16.927,4.213c3.599,0.896,7.163-1.582,7.577-5.267l17.518-155.917
					c21.903,10.401,53.503,9.158,63.923,8.397l-40.318,183.813h-141.088L2603.063,2580.722z"/>
				
					<linearGradient id="SVGID_00000132087350810279799780000013544786454867899029_" gradientUnits="userSpaceOnUse" x1="-9286.2412" y1="2289.187" x2="-8947.4756" y2="2289.187" gradientTransform="matrix(-1 0 0 1 -6719.2798 0)">
					<stop  offset="0" style="stop-color:#FEBBBA"/>
					<stop  offset="1" style="stop-color:#FF928E"/>
				</linearGradient>
				<path style="fill:url(#SVGID_00000132087350810279799780000013544786454867899029_);" d="M2228.196,2242.522l4.265-14.173
					c2.455-8.156,8.483-14.754,16.385-17.931l77.128-31.016c0,0,1.164-9.892-16.296-16.614
					c-17.46-6.722-13.379-26.277-13.379-26.277s23.855,10.882,58.776,28.14c19.973,9.87,31.178,27.296,37.12,40.414l174.768,213.056
					l-20.519,14.099c-26.981,18.539-64.092,9.431-79.425-19.492l-94.678-181.552
					C2324.805,2245.456,2276.705,2248.186,2228.196,2242.522z"/>
				<g>
					
						<linearGradient id="SVGID_00000139975557901746886480000007700160161941979046_" gradientUnits="userSpaceOnUse" x1="-9408.2031" y1="2099.1851" x2="-9290.3047" y2="1978.2241" gradientTransform="matrix(-1 0 0 1 -6719.2798 0)">
						<stop  offset="0" style="stop-color:#FEBBBA"/>
						<stop  offset="1" style="stop-color:#FF928E"/>
					</linearGradient>
					<path style="fill:url(#SVGID_00000139975557901746886480000007700160161941979046_);" d="M2623.204,1946.328l44.935,125.761
						c0,0-39.79,31.107-68.826,20.589l-22.643-72.089C2576.669,2020.588,2593.963,1932.481,2623.204,1946.328z"/>
					<g>
						
							<linearGradient id="SVGID_00000000180552181366561350000015991651358211910560_" gradientUnits="userSpaceOnUse" x1="-9237.2207" y1="1902.0121" x2="-9384.2109" y2="2096.4678" gradientTransform="matrix(-1 0 0 1 -6719.2798 0)">
							<stop  offset="0" style="stop-color:#FEBBBA"/>
							<stop  offset="1" style="stop-color:#FF928E"/>
						</linearGradient>
						<path style="fill:url(#SVGID_00000000180552181366561350000015991651358211910560_);" d="M2489.095,1901.162
							c0,1.938,43.285,122.533,43.285,122.533l68.333-26.178l-24.043-120.394
							C2576.669,1877.123,2489.095,1868.719,2489.095,1901.162z"/>
						
							<linearGradient id="SVGID_00000084527833946932325400000007395786130310278577_" gradientUnits="userSpaceOnUse" x1="-9349.4795" y1="1948.9196" x2="-9173.8975" y2="1948.9196" gradientTransform="matrix(-1 0 0 1 -6719.2798 0)">
							<stop  offset="0" style="stop-color:#09005D"/>
							<stop  offset="1" style="stop-color:#1A0F91"/>
						</linearGradient>
						<path style="fill:url(#SVGID_00000084527833946932325400000007395786130310278577_);" d="M2564.683,1906.453l17.62,62.387
							c0.226,0.8,0.342,1.606,0.343,2.437c0.007,5.089-1.253,22.597-19.087,20.216c-16.183-2.161-30.984-3.892-40.395,0.541
							c-4.226,1.99-6.248,6.853-4.668,11.249c3.935,10.956,13.26,35.479,24.613,55.55c2.304,4.073,7.356,5.657,11.616,3.719
							c12.834-5.839,39.556-18.911,58.591-34.463c2.579-2.107,3.818-5.422,3.204-8.695c-2.995-15.96-11.915-64.498-12.309-78.409
							c-0.369-13.057,14.281-23.024,20.732-26.771c2.115-1.229,3.619-3.251,4.191-5.629c2.025-8.404,3.743-27.423-20.517-31.615
							c-5.078-0.877-8.388-5.737-7.357-10.786c2.053-10.05,1.396-24.841-17.69-30.289c-19.4-5.537-31.607,6.14-37.815,15.094
							c-2.51,3.621-7.208,4.795-11.23,2.998c-2.29-1.023-5.057-1.068-8.029,1.438c-4.006,3.378-10.105,2.35-13.049-1.984
							c-5.656-8.327-15.933-16.638-33.331-11.009c-30.872,9.989-29.396,45.583-18.08,64.933c11.316,19.35,44.172,6.617,59.725-6.205
							c11.826-9.749,29.832-3.917,37.784-0.561C2562.063,1901.664,2563.939,1903.822,2564.683,1906.453z"/>
						
							<linearGradient id="SVGID_00000176735572052648949060000003022522749310944663_" gradientUnits="userSpaceOnUse" x1="-9452.5029" y1="2056.0056" x2="-9334.6055" y2="1935.0457" gradientTransform="matrix(-1 0 0 1 -6719.2798 0)">
							<stop  offset="0" style="stop-color:#FEBBBA"/>
							<stop  offset="1" style="stop-color:#FF928E"/>
						</linearGradient>
						<path style="fill:url(#SVGID_00000176735572052648949060000003022522749310944663_);" d="M2610.398,1963.765
							c0,0-18.271-34.563-6.189-45.416c12.082-10.854,32.552-9.078,32.001,17.95
							C2635.525,1969.917,2610.398,1963.765,2610.398,1963.765z"/>
					</g>
				</g>
				
					<linearGradient id="SVGID_00000181061489601353505180000001320602836521622412_" gradientUnits="userSpaceOnUse" x1="3194.8665" y1="1729.2266" x2="2649.8608" y2="2387.915">
					<stop  offset="0" style="stop-color:#E1473D"/>
					<stop  offset="1" style="stop-color:#E9605A"/>
				</linearGradient>
				<path style="fill:url(#SVGID_00000181061489601353505180000001320602836521622412_);" d="M2719.954,2431.221
					c9.971,0,17.088-0.757,17.857-0.842l1.297-0.145l53.197-248.027c0.21-0.978-0.412-1.942-1.39-2.151
					c-0.989-0.218-1.94,0.414-2.151,1.39l-52.646,245.453c-7.917,0.696-50.194,3.503-72.512-12.309l46.083-215.487l-9.619-18.126
					c-0.469-0.885-1.566-1.22-2.45-0.752c-0.885,0.471-1.221,1.566-0.752,2.45l9.003,16.962l-46.295,216.478l0.925,0.695
					C2676.628,2428.927,2702.604,2431.221,2719.954,2431.221z"/>
			</g>
			<g>
				<path style="fill:#91B3FA;" d="M1125.144,3187.424c-1.222,0-2.464-0.267-3.658-0.826c-4.702-2.208-6.875-8.159-4.852-13.291
					l194.393-493.238c2.021-5.131,7.47-7.5,12.177-5.295c4.702,2.208,6.875,8.158,4.852,13.291l-194.392,493.237
					C1132.155,3185.131,1128.736,3187.424,1125.144,3187.424z"/>
				<path style="fill:#91B3FA;" d="M1344.136,3187.424c-3.592,0-7.011-2.292-8.519-6.122l-194.393-493.237
					c-2.023-5.133,0.149-11.083,4.852-13.291c4.699-2.208,10.153,0.161,12.178,5.295l194.392,493.238
					c2.023,5.132-0.149,11.083-4.852,13.291C1346.601,3187.158,1345.358,3187.424,1344.136,3187.424z"/>
				<path style="fill:#91B3FA;" d="M2444.437,3187.424c-1.222,0-2.464-0.267-3.658-0.826c-4.702-2.208-6.875-8.159-4.851-13.291
					l194.393-493.238c2.023-5.131,7.469-7.5,12.178-5.295c4.702,2.208,6.874,8.158,4.851,13.291l-194.392,493.237
					C2451.448,3185.131,2448.029,3187.424,2444.437,3187.424z"/>
				<path style="fill:#91B3FA;" d="M2663.427,3187.424c-3.592,0-7.011-2.292-8.519-6.122l-194.392-493.237
					c-2.023-5.133,0.149-11.083,4.851-13.291c4.699-2.208,10.153,0.161,12.178,5.295l194.392,493.238
					c2.023,5.132-0.149,11.083-4.851,13.291C2665.892,3187.158,2664.649,3187.424,2663.427,3187.424z"/>
			</g>
			<g>
				<path style="fill:#BDD0FB;" d="M2416.231,2645.232l281.55,0v-29.056h-281.55
					C2422.257,2616.177,2422.257,2645.232,2416.231,2645.232z"/>
				
					<linearGradient id="SVGID_00000133500633610470622580000004999955947775683725_" gradientUnits="userSpaceOnUse" x1="-2594.0842" y1="-13643.709" x2="-2839.9031" y2="-13045.7715" gradientTransform="matrix(-1 0 0 1 -6719.2798 0)">
					<stop  offset="0" style="stop-color:#4F52FF"/>
					<stop  offset="1" style="stop-color:#4042E2"/>
				</linearGradient>
				<path style="fill:url(#SVGID_00000133500633610470622580000004999955947775683725_);" d="M2694.437,2645.232
					c1.839,0,3.344-1.505,3.344-3.344v-22.368c0-1.839-1.505-3.344-3.344-3.344h-283.448c-1.839,0-3.344-1.478-3.344-3.285
					s1.504-3.285,3.344-3.285h302.913c6.716,0,12.16,5.444,12.16,12.159v18.571c0,6.332-5.133,11.464-11.465,11.464h-303.608
					c-1.839,0-3.344-1.478-3.344-3.285c0-1.807,1.504-3.285,3.344-3.285H2694.437z"/>
			</g>
			<path style="fill:#91B3FA;" d="M2738.593,2664.818c0.946-3.243-0.342-6.598-3.511-9.146c-3.169-2.549-7.889-4.024-12.87-4.024
				H1035.191c-6.549,0-12.647,2.214-16.176,5.875c-3.529,3.66-4.002,8.26-1.255,12.204l18.282,26.246
				c4.186,6.01,13.257,9.858,23.238,9.858h1651.356c9.285,0,17.266-4.367,19.029-10.415L2738.593,2664.818z"/>
		</g>
		<g>
			<g>
				<g style="opacity:0.3;">
					<path style="fill:#BDD0FB;" d="M1817.865,943.59c-5.341-1.111-8.768-6.343-7.656-11.682
						c2.159-10.374,3.901-20.996,5.175-31.572c0.645-5.351,5.457-9.183,10.795-8.643c0.063,0.006,0.127,0.013,0.192,0.019
						c5.415,0.653,9.274,5.572,8.622,10.988c-1.342,11.132-3.174,22.314-5.448,33.235c-1.038,4.994-5.684,8.315-10.65,7.812
						C1818.552,943.713,1818.208,943.663,1817.865,943.59z M1818.055,848.433c-0.179-10.646-0.815-21.384-1.892-31.927
						c-0.554-5.422,3.393-10.272,8.819-10.828c5.448-0.538,10.274,3.397,10.828,8.824c1.134,11.091,1.805,22.395,1.995,33.597
						c0.092,5.453-4.256,9.949-9.709,10.04c-0.396,0.006-0.788-0.01-1.172-0.049C1822.013,857.593,1818.14,853.49,1818.055,848.433z
						 M1807.299,765.325c-2.537-10.311-5.554-20.635-8.969-30.693c-1.753-5.163,1.013-10.773,6.176-12.527
						c5.161-1.746,10.77,1.013,12.527,6.177c3.596,10.592,6.774,21.468,9.444,32.323c1.303,5.296-1.935,10.645-7.229,11.951
						c-1.129,0.277-2.261,0.349-3.354,0.238C1811.856,772.385,1808.324,769.492,1807.299,765.325z M1778.226,686.709
						c-4.783-9.495-10.036-18.89-15.607-27.93c-2.861-4.644-1.417-10.728,3.225-13.589c4.645-2.857,10.726-1.411,13.589,3.225
						c5.866,9.519,11.394,19.412,16.432,29.401c2.454,4.87,0.496,10.809-4.374,13.263c-1.743,0.878-3.622,1.192-5.43,1.009
						C1782.816,691.761,1779.804,689.835,1778.226,686.709z M1732.364,616.53c-6.756-8.175-13.959-16.178-21.409-23.779
						c-3.816-3.899-3.751-10.15,0.143-13.967c3.898-3.82,10.151-3.753,13.965,0.146c7.837,7.997,15.416,16.418,22.525,25.02
						c3.475,4.202,2.884,10.427-1.322,13.902c-2.118,1.751-4.75,2.47-7.285,2.214
						C1736.487,619.813,1734.088,618.616,1732.364,616.53z M1672.117,558.247c-8.409-6.488-17.2-12.694-26.133-18.448
						c-4.585-2.953-5.908-9.066-2.955-13.649c2.954-4.587,9.063-5.911,13.651-2.957c9.4,6.054,18.655,12.589,27.504,19.417
						c4.317,3.333,5.117,9.533,1.785,13.852c-2.164,2.805-5.539,4.123-8.823,3.791
						C1675.375,560.074,1673.631,559.417,1672.117,558.247z M1311.111,493.75c-1.745-5.167,1.028-10.772,6.197-12.517
						c10.586-3.574,21.473-6.733,32.354-9.389c5.299-1.293,10.643,1.953,11.935,7.253c1.294,5.296-1.953,10.639-7.251,11.933
						c-10.332,2.522-20.668,5.523-30.721,8.918c-1.379,0.465-2.787,0.61-4.148,0.472
						C1315.744,500.042,1312.389,497.539,1311.111,493.75z M1600.493,514.796c-9.636-4.453-19.582-8.543-29.566-12.151
						c-5.13-1.857-7.784-7.519-5.93-12.647c1.855-5.132,7.511-7.758,12.647-5.928c10.512,3.801,20.987,8.107,31.134,12.798
						c4.95,2.289,7.109,8.156,4.82,13.108c-1.814,3.927-5.882,6.097-9.958,5.685
						C1602.579,515.554,1601.517,515.268,1600.493,514.796z M1394.747,473.422c-0.544-5.425,3.416-10.267,8.843-10.811
						c11.116-1.112,22.428-1.758,33.619-1.928c5.458-0.107,9.939,4.274,10.023,9.727c0.082,5.452-4.273,9.939-9.727,10.023
						c-10.636,0.16-21.386,0.774-31.95,1.833c-0.674,0.068-1.338,0.062-1.987-0.003
						C1398.994,481.8,1395.222,478.173,1394.747,473.422z M1520.969,488.446c-10.383-2.183-20.997-3.948-31.55-5.24
						c-5.415-0.661-9.265-5.587-8.603-11.002c0.655-5.342,5.462-9.164,10.793-8.624c0.069,0.007,0.14,0.014,0.209,0.025
						c11.111,1.357,22.286,3.213,33.214,5.51c5.337,1.126,8.755,6.361,7.633,11.699c-1.047,4.985-5.688,8.296-10.647,7.794
						C1521.67,488.572,1521.319,488.517,1520.969,488.446z"/>
					<path style="fill:#BDD0FB;" d="M1256.054,528.458c1.934,0.196,3.947-0.174,5.777-1.191c4.451-2.473,9.029-4.89,13.605-7.196
						c4.871-2.45,6.836-8.389,4.384-13.259c-2.45-4.873-8.39-6.843-13.261-4.382c-4.814,2.421-9.628,4.966-14.313,7.566
						c-4.767,2.646-6.489,8.66-3.842,13.426C1250.035,526.364,1252.945,528.143,1256.054,528.458z"/>
				</g>
				<g style="opacity:0.3;">
					<path style="fill:#BDD0FB;" d="M1070.781,765.785c4.742,0.48,9.264-2.536,10.528-7.29c1.306-4.92,2.739-9.897,4.257-14.787
						c1.617-5.21-1.295-10.743-6.504-12.36c-5.231-1.623-10.744,1.297-12.36,6.504c-1.597,5.15-3.107,10.39-4.484,15.571
						c-1.4,5.271,1.738,10.679,7.009,12.081C1069.745,765.641,1070.265,765.733,1070.781,765.785z"/>
					<path style="fill:#BDD0FB;" d="M1384.019,1245.051c-5.393-0.813-9.105-5.846-8.29-11.242c0.815-5.392,5.841-9.094,11.24-8.288
						c10.267,1.551,20.76,2.687,31.306,3.397c5.417,0.347,9.556,5.077,9.189,10.519c-0.367,5.442-5.075,9.556-10.517,9.191
						c-4.569-0.308-9.115-0.69-13.636-1.147C1396.861,1246.828,1390.37,1246.012,1384.019,1245.051z M1460.239,1239.416
						c-0.373-5.439,3.736-10.152,9.176-10.525c10.446-0.719,20.975-1.882,31.294-3.467c5.382-0.843,10.432,2.87,11.261,8.262
						c0.827,5.388-2.872,10.43-8.262,11.257c-10.864,1.669-21.948,2.897-32.94,3.649c-0.57,0.039-1.133,0.029-1.682-0.026
						C1464.386,1248.091,1460.574,1244.289,1460.239,1239.416z M1331.483,1233.391c-10.538-3.11-21.088-6.713-31.355-10.715
						c-5.082-1.98-7.597-7.705-5.617-12.79c1.98-5.081,7.703-7.588,12.788-5.615c9.75,3.802,19.766,7.224,29.773,10.175
						c5.231,1.545,8.221,7.036,6.677,12.269c-1.366,4.627-5.823,7.499-10.455,7.03
						C1332.693,1233.684,1332.086,1233.568,1331.483,1233.391z M1543.946,1226.501c-1.559-5.225,1.413-10.729,6.64-12.286
						c10.019-2.988,20.029-6.441,29.752-10.261c5.08-1.998,10.807,0.501,12.802,5.58c1.995,5.076-0.503,10.806-5.578,12.8
						c-10.24,4.023-20.782,7.66-31.331,10.806c-1.275,0.379-2.566,0.493-3.813,0.367
						C1548.555,1233.118,1545.124,1230.452,1543.946,1226.501z M1251.484,1199.754c-9.59-5.348-19.084-11.183-28.222-17.342
						c-4.523-3.048-5.718-9.182-2.672-13.705c3.048-4.527,9.186-5.72,13.709-2.672c8.681,5.849,17.699,11.392,26.806,16.469
						c4.764,2.658,6.472,8.674,3.814,13.437c-1.98,3.549-5.824,5.401-9.623,5.017
						C1253.994,1200.826,1252.697,1200.431,1251.484,1199.754z M1180.8,1149.387c-8.209-7.333-16.203-15.098-23.762-23.079
						c-3.749-3.962-3.58-10.211,0.38-13.963c3.966-3.755,10.215-3.584,13.96,0.381c7.183,7.582,14.78,14.962,22.579,21.932
						c4.068,3.634,4.419,9.877,0.785,13.945c-2.191,2.449-5.328,3.551-8.366,3.243
						C1184.373,1151.645,1182.414,1150.83,1180.8,1149.387z M1122.769,1084.812c-6.42-8.951-12.533-18.274-18.17-27.704
						c-2.798-4.684-1.27-10.744,3.41-13.543c4.688-2.802,10.746-1.27,13.543,3.41c5.355,8.963,11.164,17.818,17.267,26.326
						c3.179,4.432,2.163,10.602-2.269,13.779c-2.036,1.461-4.436,2.036-6.746,1.802
						C1127.083,1088.606,1124.489,1087.208,1122.769,1084.812z M1080.209,1009.116c-4.307-10.137-8.231-20.576-11.661-31.028
						c-1.701-5.182,1.12-10.762,6.304-12.463c5.173-1.698,10.76,1.124,12.461,6.306c3.257,9.922,6.982,19.833,11.075,29.464
						c2.133,5.02-0.207,10.816-5.227,12.948c-1.586,0.673-3.247,0.901-4.848,0.739
						C1084.845,1014.73,1081.67,1012.552,1080.209,1009.116z M1055.308,925.874c-1.963-10.811-3.488-21.849-4.534-32.811
						c-0.518-5.43,3.463-10.254,8.893-10.771c5.412-0.515,10.25,3.461,10.769,8.891c0.993,10.414,2.443,20.897,4.305,31.167
						c0.975,5.364-2.587,10.505-7.953,11.478c-0.934,0.169-1.862,0.203-2.762,0.112
						C1059.759,933.509,1056.113,930.306,1055.308,925.874z M1049.3,839.287c0.323-8.09,0.899-16.271,1.713-24.312
						c0.295-2.913,0.621-5.811,0.978-8.703c0.668-5.411,5.541-9.373,11.009-8.59c5.413,0.664,9.261,5.594,8.594,11.009
						c-0.338,2.746-0.65,5.506-0.93,8.273c-0.774,7.646-1.322,15.418-1.63,23.111c-0.216,5.449-4.812,9.69-10.26,9.473
						c-0.205-0.009-0.409-0.022-0.61-0.042C1053.01,848.984,1049.089,844.531,1049.3,839.287z"/>
					<path style="fill:#BDD0FB;" d="M1630.592,1200.349c1.954,0.198,3.983-0.182,5.823-1.214c4.662-2.618,9.356-5.385,13.953-8.223
						c4.642-2.865,6.082-8.95,3.217-13.59c-2.867-4.641-8.946-6.085-13.59-3.217c-4.367,2.695-8.826,5.322-13.252,7.809
						c-4.754,2.667-6.445,8.688-3.775,13.444C1624.607,1198.273,1627.503,1200.036,1630.592,1200.349z"/>
				</g>
				<g>
					<path style="fill:#BDD0FB;" d="M1676.512,1037.393c1.392-1.394,1.748-3.515,0.885-5.285l-24.607-50.5
						c13.829-22.294,24.203-46.952,30.359-73.239l53.072-18.305c1.862-0.643,3.11-2.395,3.11-4.364l-0.006-67.382
						c0.001-1.97-1.25-3.722-3.11-4.363l-53.076-18.297c-6.16-26.286-16.537-50.944-30.371-73.235l24.599-50.503
						c0.862-1.771,0.506-3.893-0.886-5.285l-47.651-47.643c-1.392-1.392-3.515-1.748-5.286-0.885l-50.5,24.608
						c-22.293-13.83-46.952-24.205-73.24-30.359l-18.306-53.072c-0.642-1.862-2.394-3.111-4.363-3.11l-67.384,0.005
						c-1.969,0.001-3.721,1.251-4.363,3.112l-18.297,53.076c-26.286,6.159-50.944,16.537-73.235,30.371l-50.504-24.6
						c-1.77-0.862-3.893-0.507-5.285,0.886l-47.643,47.651c-1.392,1.392-1.747,3.515-0.885,5.284l24.609,50.501
						c-13.831,22.293-24.204,46.952-30.359,73.239l-53.072,18.306c-1.862,0.641-3.111,2.394-3.111,4.363l0.006,67.384
						c0,1.969,1.25,3.721,3.111,4.363l53.076,18.297c6.16,26.286,16.538,50.944,30.371,73.235l-24.599,50.503
						c-0.863,1.77-0.507,3.892,0.886,5.285l47.651,47.643c1.392,1.392,3.515,1.747,5.285,0.885l50.5-24.608
						c22.293,13.83,46.952,24.203,73.24,30.36l18.305,53.072c0.642,1.86,2.394,3.11,4.364,3.11l67.383-0.006
						c1.969,0,3.722-1.249,4.363-3.111l18.297-53.075c26.286-6.16,50.943-16.538,73.234-30.371l50.504,24.6
						c1.77,0.862,3.893,0.506,5.285-0.886L1676.512,1037.393z"/>
					
						<linearGradient id="SVGID_00000101810893749568194430000005672087962685075332_" gradientUnits="userSpaceOnUse" x1="1375.7299" y1="852.021" x2="1511.2085" y2="852.021">
						<stop  offset="0" style="stop-color:#DAE3FE"/>
						<stop  offset="1" style="stop-color:#E9EFFD"/>
					</linearGradient>
					<path style="fill:url(#SVGID_00000101810893749568194430000005672087962685075332_);" d="M1426.896,917.705
						c-36.211-9.14-58.238-46.032-49.1-82.247c4.425-17.543,15.42-32.311,30.954-41.584c15.531-9.273,33.747-11.946,51.291-7.515
						c36.212,9.14,58.238,46.032,49.1,82.247c-8.315,32.945-39.6,54.147-72.449,50.823
						C1433.436,919.1,1430.161,918.528,1426.896,917.705z M1416.85,807.442c-11.911,7.111-20.339,18.433-23.734,31.885
						c-7.005,27.762,9.882,56.054,37.646,63.059c27.77,7.018,56.054-9.882,63.061-37.648c7.005-27.762-9.882-56.054-37.646-63.059
						c-2.518-0.635-5.05-1.077-7.586-1.334C1437.573,799.23,1426.531,801.664,1416.85,807.442z"/>
					
						<linearGradient id="SVGID_00000065796380995474855880000009956883405108163248_" gradientUnits="userSpaceOnUse" x1="1275.9987" y1="850.9381" x2="1609.0867" y2="850.9381">
						<stop  offset="0" style="stop-color:#DAE3FE"/>
						<stop  offset="1" style="stop-color:#E9EFFD"/>
					</linearGradient>
					<path style="fill:url(#SVGID_00000065796380995474855880000009956883405108163248_);" d="M1425.463,1016.621
						c5.642,0.571,11.345,0.862,17.093,0.862l0,0c1.809,0.001,3.619-0.029,5.427-0.087c8.918-0.288,17.799-1.285,26.506-2.974
						c0.119-0.023,0.237-0.046,0.356-0.068c0.336-0.067,0.673-0.134,1.009-0.204c0.655-0.131,1.309-0.271,1.961-0.41
						c1.716-0.369,2.929-1.801,3.099-3.459c0.041-0.403,0.019-0.82-0.071-1.236c-0.459-2.132-2.563-3.481-4.694-3.026
						c-10.974,2.367-22.275,3.566-33.593,3.564c-56.216,0.014-105.692-29.374-133.88-73.59
						c-15.682-24.591-24.775-53.773-24.776-85.039c-0.002-5.483,0.274-10.926,0.821-16.307c3.669-36.214,19.55-69.786,45.634-95.872
						c29.961-29.967,69.799-46.473,112.173-46.476c87.514,0.002,158.65,71.158,158.657,158.63
						c0.001,5.393-0.272,10.767-0.813,16.097c-2.342,23.101-9.713,45.432-21.661,65.366c-0.308,0.516-0.486,1.071-0.542,1.632
						c-0.149,1.474,0.542,2.974,1.899,3.786c1.876,1.116,4.298,0.52,5.42-1.359c12.544-20.928,20.285-44.374,22.744-68.625
						c0.568-5.595,0.854-11.235,0.855-16.896c-0.006-91.838-74.753-166.539-166.557-166.533
						c-44.486,0.003-86.306,17.332-117.759,48.792c-27.385,27.386-44.055,62.63-47.909,100.648
						c-0.572,5.649-0.861,11.362-0.862,17.116c0.005,44.488,17.332,86.31,48.79,117.763
						C1352.181,996.102,1387.437,1012.772,1425.463,1016.621z"/>
				</g>
			</g>
			<g>
				<g style="opacity:0.3;">
					<path style="fill:#BDD0FB;" d="M2127.978,1236.609c2.625,0.266,5.217-1.202,6.261-3.772c1.952-4.796,3.785-9.717,5.447-14.626
						c1.08-3.19-0.629-6.649-3.822-7.733c-3.191-1.095-6.652,0.632-7.733,3.821c-1.584,4.677-3.331,9.368-5.192,13.945
						c-1.27,3.116,0.232,6.675,3.351,7.949C2126.844,1236.416,2127.411,1236.551,2127.978,1236.609z"/>
					<path style="fill:#BDD0FB;" d="M2140.976,1191.616c-3.299-0.681-5.424-3.902-4.746-7.204c1.708-8.328,3.01-16.841,3.866-25.298
						c0.18-1.784,0.34-3.576,0.484-5.375c0.271-3.355,3.21-5.86,6.568-5.592c3.165,0.38,5.86,3.21,5.594,6.571
						c-0.152,1.883-0.32,3.758-0.509,5.624c-0.897,8.865-2.262,17.791-4.056,26.525c-0.633,3.091-3.506,5.153-6.581,4.842
						C2141.391,1191.688,2141.185,1191.655,2140.976,1191.616z M2141.167,1122.768c-0.433-10.299-1.507-20.664-3.196-30.803
						c-0.552-3.325,1.69-6.462,5.015-7.018c3.306-0.546,6.466,1.69,7.019,5.015c1.771,10.626,2.898,21.493,3.35,32.292
						c0.141,3.366-2.473,6.209-5.84,6.354c-0.294,0.012-0.59,0-0.877-0.029C2143.669,1128.277,2141.297,1125.834,2141.167,1122.768z
						 M2130.986,1061.784c-2.938-9.864-6.528-19.645-10.671-29.081c-1.353-3.082,0.05-6.682,3.133-8.035
						c3.095-1.357,6.683,0.042,8.038,3.131c4.345,9.893,8.108,20.158,11.192,30.498c0.961,3.228-0.875,6.629-4.103,7.59
						c-0.787,0.231-1.584,0.301-2.354,0.223C2133.836,1065.869,2131.716,1064.223,2130.986,1061.784z M2106.133,1005.165
						c-5.276-8.856-11.152-17.467-17.458-25.577c-2.068-2.664-1.588-6.495,1.073-8.56c2.654-2.06,6.489-1.588,8.558,1.07
						c6.616,8.513,12.773,17.535,18.308,26.824c1.725,2.893,0.774,6.64-2.119,8.365c-1.168,0.69-2.473,0.953-3.729,0.826
						C2108.907,1007.924,2107.161,1006.892,2106.133,1005.165z M2068.209,956.329c-7.268-7.303-15.054-14.222-23.146-20.573
						c-2.649-2.076-3.111-5.912-1.031-8.563c2.079-2.651,5.914-3.12,8.564-1.031c8.481,6.654,16.642,13.909,24.262,21.56
						c2.374,2.39,2.366,6.251-0.02,8.625c-1.348,1.342-3.167,1.924-4.922,1.747C2070.563,957.956,2069.245,957.368,2068.209,956.329
						z M2019.58,918.179c-8.817-5.311-18.047-10.118-27.441-14.29c-3.077-1.365-4.466-4.972-3.098-8.048
						c1.368-3.076,4.96-4.461,8.052-3.101c9.849,4.374,19.534,9.419,28.783,14.989c2.883,1.741,3.815,5.487,2.078,8.37
						c-1.259,2.088-3.57,3.153-5.843,2.923C2021.243,918.935,2020.379,918.662,2019.58,918.179z M1963.122,893.092
						c-9.82-2.975-19.958-5.373-30.136-7.121c-3.318-0.575-5.547-3.729-4.974-7.047c0.569-3.319,3.711-5.497,7.047-4.98
						c10.668,1.841,21.298,4.353,31.597,7.473c3.224,0.979,5.046,4.384,4.07,7.608c-0.858,2.835-3.601,4.587-6.445,4.299
						C1963.896,893.283,1963.508,893.209,1963.122,893.092z M1864.68,877.404c-0.253-3.36,2.264-6.285,5.625-6.537
						c9.299-0.699,18.797-0.899,28.202-0.6c1.43,0.037,2.852,0.097,4.276,0.164c3.352,0.064,5.962,3.022,5.792,6.394
						c-0.164,3.366-3.024,5.956-6.391,5.795c-1.334-0.069-2.673-0.12-4.037-0.157c-9.002-0.289-18.062-0.098-26.93,0.567
						c-0.365,0.029-0.727,0.022-1.076-0.013C1867.252,882.724,1864.904,880.397,1864.68,877.404z"/>
				</g>
				<g style="opacity:0.3;">
					<path style="fill:#BDD0FB;" d="M1859.977,1395.275c-10.562-1.207-21.14-3.074-31.446-5.536
						c-3.273-0.786-5.296-4.075-4.512-7.354c0.784-3.28,4.091-5.262,7.354-4.512c9.826,2.353,19.917,4.129,29.993,5.281
						c3.347,0.38,5.75,3.407,5.366,6.752c-0.381,3.32-3.359,5.713-6.672,5.378
						C1860.033,1395.281,1860.004,1395.278,1859.977,1395.275z M1885.745,1390.927c-0.021-3.367,2.694-6.115,6.06-6.134
						c10.133-0.064,20.364-0.74,30.411-2.016c3.323-0.412,6.395,1.94,6.817,5.288c0.425,3.342-1.94,6.389-5.282,6.817
						c-10.528,1.335-21.251,2.046-31.869,2.109c-0.224,0.001-0.442-0.009-0.661-0.031
						C1888.162,1396.649,1885.764,1394.078,1885.745,1390.927z M1797.969,1380.414c-9.962-3.727-19.782-8.091-29.184-12.976
						c-2.989-1.554-4.154-5.24-2.601-8.226c1.551-2.992,5.221-4.147,8.223-2.604c8.969,4.662,18.333,8.825,27.837,12.385
						c3.155,1.181,4.755,4.696,3.576,7.846c-0.993,2.653-3.634,4.206-6.325,3.934
						C1798.986,1380.72,1798.474,1380.603,1797.969,1380.414z M1947.736,1384.509c-0.831-3.263,1.145-6.584,4.409-7.414
						c9.819-2.497,19.581-5.622,29.016-9.294c3.137-1.215,6.674,0.34,7.896,3.469c1.221,3.141-0.332,6.678-3.472,7.898
						c-9.894,3.854-20.135,7.134-30.434,9.75c-0.713,0.179-1.427,0.226-2.117,0.156
						C1950.557,1388.823,1948.385,1387.059,1947.736,1384.509z M1741.411,1351.017c-8.754-5.999-17.231-12.598-25.202-19.613
						c-2.529-2.226-2.773-6.082-0.547-8.611c2.226-2.529,6.08-2.78,8.611-0.548c7.599,6.696,15.685,12.987,24.036,18.705
						c2.777,1.904,3.488,5.699,1.581,8.482c-1.303,1.904-3.502,2.837-5.65,2.619
						C1743.259,1351.953,1742.284,1351.615,1741.411,1351.017z M1693.548,1308.905c-7.076-7.937-13.732-16.375-19.785-25.076
						c-1.923-2.763-1.243-6.562,1.523-8.485c2.76-1.924,6.565-1.245,8.491,1.524c5.773,8.295,12.125,16.344,18.877,23.919
						c2.242,2.514,2.02,6.371-0.495,8.612c-1.329,1.183-3.032,1.681-4.676,1.515
						C1696.021,1310.765,1694.604,1310.089,1693.548,1308.905z M1657.143,1256.54c-4.975-9.406-9.414-19.201-13.195-29.103
						c-1.202-3.151,0.376-6.673,3.524-7.875c3.145-1.203,6.67,0.381,7.873,3.521c3.603,9.447,7.837,18.784,12.584,27.748
						c1.575,2.979,0.438,6.672-2.541,8.244c-1.104,0.589-2.305,0.796-3.46,0.679
						C1659.966,1259.556,1658.136,1258.413,1657.143,1256.54z"/>
					<path style="fill:#BDD0FB;" d="M2011.359,1366.354c1.171,0.118,2.387-0.1,3.501-0.7c4.597-2.474,9.14-5.098,13.508-7.792
						c2.864-1.77,3.757-5.529,1.988-8.396c-1.774-2.856-5.527-3.75-8.396-1.987c-4.164,2.572-8.5,5.073-12.885,7.437
						c-2.966,1.597-4.074,5.299-2.477,8.262C2007.596,1365.027,2009.412,1366.157,2011.359,1366.354z"/>
				</g>
				<g>
					<path style="fill:#BDD0FB;" d="M2046.13,1255.563c0.931-0.932,1.169-2.352,0.592-3.537l-16.466-33.793
						c9.254-14.918,16.195-31.418,20.314-49.008l35.513-12.25c1.246-0.43,2.081-1.602,2.082-2.92l-0.004-45.089
						c0.001-1.318-0.836-2.491-2.081-2.92l-35.516-12.243c-4.122-17.59-11.066-34.09-20.323-49.006l16.46-33.795
						c0.577-1.185,0.338-2.605-0.593-3.537l-31.885-31.88c-0.931-0.932-2.352-1.17-3.537-0.592l-33.792,16.466
						c-14.918-9.255-31.419-16.196-49.009-20.315l-12.249-35.513c-0.43-1.246-1.602-2.082-2.92-2.081l-45.09,0.003
						c-1.318,0-2.49,0.837-2.919,2.082l-12.244,35.516c-17.59,4.122-34.09,11.066-49.005,20.323l-33.795-16.462
						c-1.184-0.577-2.605-0.339-3.536,0.593l-31.881,31.886c-0.931,0.931-1.169,2.352-0.592,3.536l16.467,33.793
						c-9.255,14.917-16.196,31.418-20.315,49.008l-35.513,12.25c-1.246,0.429-2.082,1.601-2.081,2.92l0.004,45.09
						c0,1.318,0.836,2.49,2.082,2.919l35.516,12.243c4.122,17.589,11.066,34.09,20.323,49.006l-16.461,33.795
						c-0.577,1.184-0.339,2.604,0.593,3.537l31.886,31.88c0.932,0.932,2.352,1.169,3.537,0.593l33.792-16.467
						c14.918,9.255,31.418,16.196,49.009,20.315l12.249,35.513c0.43,1.245,1.602,2.081,2.92,2.081l45.09-0.004
						c1.318,0,2.49-0.836,2.919-2.082l12.244-35.515c17.59-4.122,34.089-11.067,49.005-20.323l33.795,16.461
						c1.184,0.577,2.605,0.338,3.536-0.593L2046.13,1255.563z"/>
					
						<linearGradient id="SVGID_00000025413640528865476690000001386487423798356659_" gradientUnits="userSpaceOnUse" x1="1844.0315" y1="1131.5382" x2="1936.3298" y2="1131.5382">
						<stop  offset="0" style="stop-color:#DAE3FE"/>
						<stop  offset="1" style="stop-color:#E9EFFD"/>
					</linearGradient>
					<path style="fill:url(#SVGID_00000025413640528865476690000001386487423798356659_);" d="M1878.902,1176.262
						c-11.953-3.012-22.014-10.502-28.33-21.086c-6.317-10.578-8.136-22.987-5.118-34.937c6.223-24.664,31.315-39.637,56.026-33.448
						c24.667,6.232,39.667,31.363,33.442,56.021c-3.014,11.95-10.502,22.011-21.082,28.328c-8.602,5.134-18.412,7.296-28.201,6.305
						C1883.388,1177.219,1881.135,1176.823,1878.902,1176.262z M1857.282,1123.22c-2.219,8.792-0.882,17.919,3.766,25.706
						c4.645,7.78,12.048,13.289,20.836,15.508l0,0c8.793,2.207,17.917,0.879,25.703-3.769c7.782-4.642,13.289-12.048,15.507-20.833
						c4.579-18.144-6.455-36.629-24.598-41.213c-1.638-0.411-3.276-0.697-4.909-0.862
						C1877.126,1096.091,1861.446,1106.717,1857.282,1123.22z"/>
					
						<linearGradient id="SVGID_00000031893442936813179460000001980126763126512796_" gradientUnits="userSpaceOnUse" x1="1774.6677" y1="1130.7961" x2="2004.4701" y2="1130.7961">
						<stop  offset="0" style="stop-color:#DAE3FE"/>
						<stop  offset="1" style="stop-color:#E9EFFD"/>
					</linearGradient>
					<path style="fill:url(#SVGID_00000031893442936813179460000001980126763126512796_);" d="M1877.909,1245.107
						c3.84,0.389,7.73,0.584,11.669,0.588c7.822,0.001,15.652-0.793,23.292-2.366c0.343-0.073,0.686-0.146,1.028-0.22
						c2.65-0.57,4.523-2.781,4.785-5.341c0.063-0.622,0.03-1.266-0.109-1.908c-0.709-3.293-3.959-5.37-7.247-4.673
						c-7.119,1.537-14.435,2.311-21.745,2.308l-0.003,0c-0.401,0.001-0.804-0.004-1.203-0.008
						c-17.3-0.164-33.904-4.635-48.632-12.831c-7.994-4.449-15.436-10.004-22.132-16.579c-0.055-0.053-0.109-0.107-0.163-0.16
						c-0.166-0.167-0.332-0.327-0.495-0.493c-19.398-19.398-30.085-45.187-30.086-72.619c-0.003-3.551,0.177-7.071,0.529-10.555
						c2.376-23.444,12.658-45.177,29.544-62.07c19.397-19.398,45.187-30.079,72.616-30.081c27.413,0.009,53.223,10.68,72.625,30.071
						c19.398,19.397,30.085,45.187,30.086,72.619c0.003,3.491-0.176,6.969-0.525,10.418c-1.517,14.958-6.287,29.412-14.023,42.315
						c-0.476,0.796-0.752,1.654-0.836,2.52c-0.23,2.276,0.837,4.593,2.932,5.847c2.894,1.724,6.634,0.797,8.37-2.099
						c8.654-14.438,13.994-30.613,15.694-47.342c0.391-3.864,0.59-7.753,0.59-11.657c-0.003-30.695-11.958-59.547-33.664-81.249
						c-21.703-21.696-50.54-33.667-81.247-33.644c-30.692,0.001-59.543,11.952-81.243,33.661
						c-18.894,18.892-30.395,43.208-33.053,69.438c-0.394,3.893-0.596,7.836-0.596,11.805
						C1774.676,1190.223,1820.016,1239.247,1877.909,1245.107z"/>
				</g>
			</g>
		</g>
	</g>
</g>
</svg>
